<svg width="14" height="25" viewBox="0 0 14 25" fill="none" xmlns="http://www.w3.org/2000/svg">
<g id="Group">
<path id="Vector" d="M6.51792 0.148682C2.95629 0.148682 0.125 2.97997 0.125 6.5216C0.125 9.19282 1.72573 11.5539 4.22688 12.5043V22.3788C4.22688 22.629 4.30691 22.819 4.48699 23.0092L6.15776 24.6899C6.32784 24.86 6.66799 24.91 6.87809 24.6999L10.0495 21.5284C10.2596 21.3084 10.2496 21.0182 10.0495 20.8081L8.07863 18.8673L10.7799 16.176C10.9699 15.9759 10.9699 15.6858 10.7599 15.4657L8.08864 12.7744C11.18 11.5438 12.9008 9.26285 12.9008 6.5216C12.9008 2.99999 10.0495 0.148682 6.51792 0.148682ZM6.51792 6.01136C5.5875 6.01136 4.84716 5.26102 4.84716 4.3406C4.84716 3.41018 5.5775 2.66983 6.51792 2.66983C7.43834 2.66983 8.18868 3.41018 8.18868 4.3406C8.18868 5.26102 7.43834 6.01136 6.51792 6.01136Z" fill="#333333"/>
</g>
</svg>
