<svg width="22" height="25" viewBox="0 0 22 25" fill="none" xmlns="http://www.w3.org/2000/svg">
<g id="Group 171">
<g id="Group 82">
<path id="Vector" d="M3.2527 15.2429C3.5945 15.575 4.1609 15.575 4.49293 15.2429L10.7429 8.99293L16.9929 15.2429C17.325 15.575 17.9011 15.5847 18.2332 15.2429C18.5652 14.9011 18.5652 14.3445 18.2332 14.0125L11.9832 7.7527L18.2332 1.5027C18.5652 1.17067 18.575 0.604261 18.2332 0.27223C17.8914 -0.0695672 17.325 -0.0695672 16.9929 0.27223L10.7429 6.52223L4.49293 0.27223C4.1609 -0.0695672 3.58473 -0.0793328 3.2527 0.27223C2.92067 0.614027 2.92067 1.17067 3.2527 1.5027L9.5027 7.7527L3.2527 14.0125C2.92067 14.3445 2.9109 14.9109 3.2527 15.2429Z" fill="#4F4F4F"/>
</g>
<g id="fermer">
<path d="M0.55652 24.9472H0.861928V21.6248H1.81887V21.3606H0.861928V21.1096C0.861928 20.5284 1.08589 20.2642 1.8053 20.2642V20C0.895862 20 0.55652 20.3765 0.55652 21.1096V21.3606H0V21.6248H0.55652V24.9472Z" fill="#4F4F4F"/>
<path d="M4.19607 21.5654C4.94262 21.5654 5.66202 22.0277 5.61451 23.0251H2.72332C2.75726 22.0343 3.44273 21.5654 4.19607 21.5654ZM5.89277 23.7715H5.57379C5.45163 24.3659 4.92904 24.7424 4.20285 24.7424C3.44273 24.7424 2.75047 24.2668 2.72332 23.2695H5.90635C5.91992 23.1506 5.91992 23.0713 5.91992 22.9128C5.91992 22.0806 5.30911 21.3144 4.20285 21.3144C3.15768 21.3144 2.41113 22.0079 2.41113 23.1506C2.41113 24.2999 3.17125 25 4.20285 25C5.14622 25 5.75025 24.4782 5.89277 23.7715Z" fill="#4F4F4F"/>
<path d="M7.14834 22.8798C7.14834 21.9022 7.77951 21.5984 8.41069 21.5984H8.51249V21.288C7.7863 21.288 7.33158 21.5786 7.14834 22.1004V21.3606H6.84293V24.9472H7.14834V22.8798Z" fill="#4F4F4F"/>
<path d="M14.7062 24.9472H15.0048V22.8468C15.0048 21.7701 14.3601 21.288 13.5728 21.288C12.9349 21.288 12.3783 21.605 12.1951 22.2919C12.0118 21.605 11.4689 21.288 10.8309 21.288C10.2473 21.288 9.73826 21.5588 9.52108 22.14V21.3606H9.21567V24.9472H9.52108V23.0383C9.52108 22.0343 10.0505 21.5456 10.7834 21.5456C11.496 21.5456 11.9643 21.9947 11.9643 22.8666V24.9472H12.263V23.0383C12.263 22.0343 12.7991 21.5456 13.5253 21.5456C14.2379 21.5456 14.7062 21.9947 14.7062 22.8666V24.9472Z" fill="#4F4F4F"/>
<path d="M17.6836 21.5654C18.4301 21.5654 19.1495 22.0277 19.102 23.0251H16.2108C16.2448 22.0343 16.9302 21.5654 17.6836 21.5654ZM19.3803 23.7715H19.0613C18.9391 24.3659 18.4166 24.7424 17.6904 24.7424C16.9302 24.7424 16.238 24.2668 16.2108 23.2695H19.3939C19.4074 23.1506 19.4074 23.0713 19.4074 22.9128C19.4074 22.0806 18.7966 21.3144 17.6904 21.3144C16.6452 21.3144 15.8986 22.0079 15.8986 23.1506C15.8986 24.2999 16.6588 25 17.6904 25C18.6337 25 19.2378 24.4782 19.3803 23.7715Z" fill="#4F4F4F"/>
<path d="M20.6358 22.8798C20.6358 21.9022 21.267 21.5984 21.8982 21.5984H22V21.288C21.2738 21.288 20.8191 21.5786 20.6358 22.1004V21.3606H20.3304V24.9472H20.6358V22.8798Z" fill="#4F4F4F"/>
</g>
</g>
</svg>
