<svg id="Layer_1" height="512" viewBox="0 0 48 48" width="512" xmlns="http://www.w3.org/2000/svg" data-name="Layer 1"><path d="m1.044 24.544.001-.004-.006-.002z" fill="#1d8a9b"/><path d="m30.86 37.08c-1.11 2.14-2.93 3.88-4.52 3.72a.748.748 0 0 1 -.44-.15c-.33-.25-.931-.222-1.063-3.408a28.268 28.268 0 0 1 .132-5.262 6 6 0 0 1 3.07-2.113 3.479 3.479 0 0 1 1.643.053 2.546 2.546 0 0 1 .478.19c1.88.98 2.2 4.1.7 6.97z" fill="#fcac44"/><path d="m36 15.346v9.584c0 .93-2.04 1.81-5.19 2.27a83.244 83.244 0 0 1 -8.653.2l-11.217-4v-8.244l15.07 3.57z" fill="#4e6078"/><path d="m36 15.346v3.692s-.51.24-1.38.58c-1.99.78-4.237 2.071-8.233 2.071-4.066 0-15.447-3.816-15.447-3.816v-2.717l15.07 3.57 8.61-2.91z" fill="#47576d"/><path d="m36 19.045v5.885c0 .82-1.6 1.61-4.16 2.09 1.74-.47 2.78-1.11 2.78-1.77v-5.625c.87-.34 1.38-.58 1.38-.58z" fill="#556881"/><path d="m36 15.346v3.691s-.51.24-1.38.58v-3.8z" fill="#4e6078"/><rect fill="#4e6078" height="4.906" rx="1.815" width="3.629" x="41.805" y="17.741"/><path d="m47 11.86-11 3.73-9.99 3.38-15.07-3.57-9.94-2.35 21.39-5.86z" fill="#556881"/><path d="m43.619 17.741a1.809 1.809 0 0 0 -1.719 1.259 1.766 1.766 0 0 1 .343-.035 1.815 1.815 0 0 1 1.815 1.815v1.277a1.78 1.78 0 0 1 -.1.557 1.814 1.814 0 0 0 1.472-1.78v-1.278a1.816 1.816 0 0 0 -1.811-1.815z" fill="#556881"/><path d="m21.015 8.875 22.305 4.233 3.68-1.248-24.61-4.67-21.39 5.86 2.564.606z" fill="#5e738e"/><path d="m1.044 24.544.001-.004-.006-.002z" fill="#2baaaf"/><path d="m1.044 24.544.001-.004-.006-.002z" fill="#2baaaf"/><path d="m30.16 30.11a2.546 2.546 0 0 0 -.478-.19 3.479 3.479 0 0 0 -1.643-.053 6 6 0 0 0 -3.07 2.113s-.02.134-.043.324c.088-.057.232-.142.326-.2a3.474 3.474 0 0 1 3.477-.467c1.88.98 2.2 4.1.7 6.97a10.629 10.629 0 0 1 -.771 1.248l-.075.1a9 9 0 0 0 2.277-2.875c1.5-2.87 1.18-5.99-.7-6.97z" fill="#fcbd55"/><path d="m29.653 29.912-25.223-8.992c-.85-.36-2.04.48-2.8 1.95-.07.14-.14.29-.21.44a6.175 6.175 0 0 0 -.38 1.23l.8.346-.47 2.114c-.19.94-.14 1.94.47 2.19l24.06 11.46c-1.306-.622-.82-8.64-.82-8.64 1.34-1.64 3.133-2.478 4.573-2.098z" fill="#fadb83"/><path d="m28.53 33.4a14.063 14.063 0 0 0 -2.9 5.71c-.145.739-.06 1.29.27 1.54l-24.06-11.46c-.61-.25-.66-1.25-.47-2.19l.47-2.11.669-1.677 22.571 8.8z" fill="#fec868"/><path d="m27.212 35.251a15.159 15.159 0 0 1 1.318-1.851l-3.45-1.39-22.571-8.8-.668 1.673 23.679 10.117a16.623 16.623 0 0 0 -1.228 2.958 10.467 10.467 0 0 0 -.292 1.788l1.9.9c-.33-.25-.414-.8-.27-1.54a15.161 15.161 0 0 1 1.582-3.855z" fill="#ffd27c"/><path d="m47.187 10.88-24.613-4.67a1 1 0 0 0 -.451.018l-21.388 5.859a1 1 0 0 0 .035 1.937l9.17 2.17v5.631l-5.117-1.825c-1.487-.631-3.344.626-4.323 2.925a7.161 7.161 0 0 0 -.424 1.36 1.009 1.009 0 0 0 .154.842.99.99 0 0 0 .456.347l-.294 1.332c-.337 1.674.046 2.88 1 3.284l21.373 10.6.888-1.792-10.828-5.369a4.3 4.3 0 0 1 -.084-2.681l10.448 4.652a1 1 0 0 0 1.347-.57 8 8 0 0 1 .857-1.683l1.558.609c-.183.275-.361.56-.531.854-.593 1.028-2.456 4.512-1.528 6.219a1.619 1.619 0 0 0 1.343.859 3.2 3.2 0 0 0 .323.016c2.192 0 4.15-2.253 5.193-4.262 1.773-3.417 1.277-7.071-1.129-8.321a3.667 3.667 0 0 0 -.775-.3l-1.518-.541a26.03 26.03 0 0 0 2.632-.2c4.009-.58 6.039-1.68 6.039-3.252v-6.44h-2v6.347c-.219.256-1.347.936-4.337 1.38a72.375 72.375 0 0 1 -7.861.2l-5.062-1.806.005-.014c-.075-.031-.155-.042-.232-.067l-5.573-1.989v-5.872l13.844 3.274a1.007 1.007 0 0 0 .551-.025l16.284-5.516v2.532a2.812 2.812 0 0 0 -1.814 2.622v1.277a2.815 2.815 0 1 0 5.629 0v-1.275a2.813 2.813 0 0 0 -1.815-2.622v-3.209l2.7-.915a1 1 0 0 0 -.133-1.93zm-44.846 12.826c.6-1.415 1.512-1.951 1.755-1.846l9.722 3.471a7.81 7.81 0 0 0 -2.245 2.807l-9.339-4.162c.034-.091.066-.176.107-.27zm8.25 8.715-8.269-4.1a2.4 2.4 0 0 1 .027-1.1l.2-.913 8.342 3.718a8.76 8.76 0 0 0 -.3 2.395zm12.577.669c-.03.058-.06.117-.089.176l-9.679-4.312a5.089 5.089 0 0 1 2.3-2.426 1.753 1.753 0 0 1 1.077-.141l9.343 3.336a8.826 8.826 0 0 0 -2.952 3.367zm6.532-2.09c1.364.708 1.49 3.284.276 5.624-.922 1.776-2.3 3.08-3.346 3.175a9.934 9.934 0 0 1 1.522-4.085 12.5 12.5 0 0 1 1.153-1.675 1 1 0 0 0 -.409-1.567l-2.06-.8a2.747 2.747 0 0 1 2.864-.672zm14.734-10.167a.815.815 0 1 1 -1.629 0v-1.277a.815.815 0 0 1 1.629 0zm-18.468-2.9-20.922-4.953 17.385-4.762 20.646 3.918z"/></svg>