<svg width="17" height="11" viewBox="0 0 17 11" fill="none" xmlns="http://www.w3.org/2000/svg">
<path id="Vector" d="M8.48633 10.2754C8.73047 10.2754 8.97461 10.1777 9.14062 9.9922L16.6992 2.24805C16.8652 2.08203 16.9629 1.86719 16.9629 1.62305C16.9629 1.11523 16.582 0.724609 16.0742 0.724609C15.8301 0.724609 15.6055 0.822266 15.4395 0.97852L7.95898 8.625H9.00391L1.52344 0.97852C1.36719 0.822266 1.14258 0.724609 0.888672 0.724609C0.380859 0.724609 0 1.11523 0 1.62305C0 1.86719 0.0976562 2.08203 0.263672 2.25781L7.82227 9.9922C8.00781 10.1777 8.23242 10.2754 8.48633 10.2754Z" fill="#4F4F4F"/>
</svg>
