<svg width="13" height="13" viewBox="0 0 13 13" fill="none" xmlns="http://www.w3.org/2000/svg">
<g id="Vector">
<path id="Vector_2" d="M7.76899 13C8.21575 13 8.53219 12.6153 8.76183 12.0196L12.8262 1.40238C12.9379 1.11694 13 0.862528 13 0.65155C13 0.248207 12.7518 0 12.3484 0C12.1375 0 11.8831 0.0620548 11.5976 0.173748L0.924583 4.263C0.403341 4.46157 0 4.77804 0 5.23102C0 5.80193 0.434367 5.99427 1.03007 6.17422L4.3809 7.19191C4.77804 7.316 5.00143 7.30355 5.26826 7.05535L12.0754 0.694988C12.1561 0.620523 12.2491 0.632933 12.3112 0.68878C12.3733 0.750834 12.3795 0.84391 12.305 0.924583L5.96945 7.75654C5.72744 8.01096 5.70883 8.22198 5.82672 8.63767L6.81339 11.9141C6.9995 12.5408 7.19191 13 7.76899 13Z" fill="white"/>
</g>
</svg>
