<?xml version="1.0" encoding="iso-8859-1"?>
<!-- Generator: Adobe Illustrator 16.0.0, SVG Export Plug-In . SVG Version: 6.00 Build 0)  -->
<!DOCTYPE svg PUBLIC "-//W3C//DTD SVG 1.1//EN" "http://www.w3.org/Graphics/SVG/1.1/DTD/svg11.dtd">
<svg version="1.1" id="Capa_1" xmlns="http://www.w3.org/2000/svg" xmlns:xlink="http://www.w3.org/1999/xlink" x="0px" y="0px"
	 width="488.725px" height="488.725px" viewBox="0 0 488.725 488.725" style="enable-background:new 0 0 488.725 488.725;"
	 xml:space="preserve">
<g>
	<g>
		<path d="M159.967,484.361c2.375,2.77,5.84,4.363,9.488,4.363h143.39c6.903,0,12.5-5.598,12.5-12.5v-41.799
			c0-6.902-5.597-12.5-12.5-12.5h-32.396l38.081-247.081c0.556-3.605-0.491-7.273-2.866-10.042s-5.841-4.362-9.488-4.362H163.271
			c-6.903,0-12.5,5.597-12.5,12.5v41.799c0,6.903,5.597,12.5,12.5,12.5h31.913L157.103,474.32
			C156.546,477.924,157.593,481.594,159.967,484.361z M222.111,216.644c0.556-3.605-0.491-7.273-2.866-10.042
			c-2.375-2.769-5.84-4.362-9.488-4.362h-33.987v-16.799h115.832l-38.082,247.081c-0.557,3.605,0.49,7.273,2.865,10.043
			c2.375,2.768,5.842,4.361,9.488,4.361h34.471v16.799H184.03L222.111,216.644z"/>
		<path d="M264.087,0c-40.729,0-73.866,33.137-73.866,73.866c0,40.73,33.136,73.867,73.866,73.867
			c40.73,0,73.867-33.137,73.867-73.867S304.818,0,264.087,0z M264.087,122.733c-26.945,0-48.866-21.922-48.866-48.867
			c0-26.945,21.921-48.866,48.866-48.866c26.945,0,48.867,21.921,48.867,48.866C312.954,100.811,291.032,122.733,264.087,122.733z"
			/>
	</g>
</g>
<g>
</g>
<g>
</g>
<g>
</g>
<g>
</g>
<g>
</g>
<g>
</g>
<g>
</g>
<g>
</g>
<g>
</g>
<g>
</g>
<g>
</g>
<g>
</g>
<g>
</g>
<g>
</g>
<g>
</g>
</svg>
