<svg id="Layer_1" enable-background="new 0 0 512 512" height="512" viewBox="0 0 512 512" width="512" xmlns="http://www.w3.org/2000/svg"><g id="Layer_2_1_"><g id="Layer_1-2"><path id="i" d="m242.6 137.4c7-.1 13.8 2.7 18.7 7.8 5 4.9 7.8 11.6 7.8 18.7.1 7-2.7 13.7-7.8 18.5-4.9 5-11.7 7.7-18.7 7.6-6.9.1-13.6-2.6-18.5-7.6-5-4.8-7.7-11.5-7.6-18.5-.1-7 2.6-13.7 7.6-18.7 4.9-5.1 11.6-8 18.5-7.8m25.1 70.3v112.2c0 9.2 1.3 15.3 3.8 18.3s7 4.5 13.4 4.5c2.2.1 4.3-.1 6.4-.7 1.4-.4 2.7-.9 3.8-1.3.2 1.1.3 2.2.3 3.3v3.3c0 5.5-.9 10-2.8 13.5-1.7 3.3-4.2 6.2-7.2 8.4-2.9 2-6.1 3.5-9.6 4.3-3.2.7-6.5 1.1-9.7 1.1-16.9 0-28.8-4.7-35.6-14s-10.2-21.7-10.2-37.1v-115.8zm-25.1-80.3c-9.7-.1-19 3.8-25.6 10.8-6.8 6.8-10.6 16-10.4 25.6-.2 9.6 3.6 18.9 10.5 25.6 3.6 3.7 8 6.5 12.8 8.3h-19.7v125.8c0 17.5 4.1 32 12.2 43 8.8 12 23.5 18.1 43.7 18.1 4 0 8-.5 11.9-1.4 4.7-1.1 9.2-3.1 13.1-5.9 4.3-3.1 7.9-7.2 10.3-11.9 2.6-5 4-11.1 4-18.2v-3.3c0-1.8-.2-3.5-.5-5.2l-2.4-11.9-11.2 4.5c-.8.3-1.8.7-3 1-1.2.2-2.3.3-3.5.2-3.9 0-5.4-.7-5.7-.9-.3-.6-1.4-3.5-1.4-11.8v-122.1h-22.3c4.8-1.8 9.2-4.6 12.9-8.3 7-6.7 10.9-15.9 10.8-25.6.1-9.7-3.7-19-10.7-25.7-6.8-7-16.1-10.9-25.8-10.7z"/></g></g></svg>