<?xml version="1.0" encoding="iso-8859-1"?>
<!-- Generator: Adobe Illustrator 19.0.0, SVG Export Plug-In . SVG Version: 6.00 Build 0)  -->
<svg version="1.1" id="Capa_1" xmlns="http://www.w3.org/2000/svg" xmlns:xlink="http://www.w3.org/1999/xlink" x="0px" y="0px"
	 viewBox="0 0 512 512" style="enable-background:new 0 0 512 512;" xml:space="preserve">
<path style="fill:#FF6991;" d="M430.08,504.518H81.92c-14.335,0-24.165-14.44-18.91-27.777l31.067-78.839
	c3.559-9.031,12.279-14.968,21.986-14.968h282.123c8.349,0,15.849,5.106,18.91,12.873l31.893,80.934
	C454.245,490.078,444.415,504.518,430.08,504.518z"/>
<path style="fill:#FF507E;" d="M445.244,497.722c0.044-0.05,0.092-0.098,0.136-0.148c0.231-0.265,0.453-0.538,0.67-0.814
	c0.028-0.035,0.058-0.069,0.085-0.104c0.225-0.291,0.441-0.589,0.65-0.891c0.016-0.024,0.034-0.046,0.051-0.07
	c0.219-0.32,0.429-0.646,0.63-0.978c0.004-0.007,0.009-0.014,0.013-0.021c3.113-5.147,3.986-11.672,1.511-17.954l-31.893-80.934
	c-3.061-7.768-10.561-12.873-18.91-12.873h-55.86c8.349,0,15.849,5.106,18.91,12.873l31.893,80.934
	c0.018,0.045,0.035,0.089,0.052,0.134c2.433,6.3-2.41,13.056-9.163,13.056H81.92c-8.916,0-16.086-5.587-18.971-13.019
	c-5.105,13.289,4.697,27.606,18.971,27.606h348.16c0.448,0,0.891-0.014,1.33-0.042c0.035-0.002,0.07-0.008,0.105-0.01
	c0.402-0.027,0.801-0.063,1.194-0.113c0.114-0.014,0.224-0.037,0.337-0.053c0.312-0.045,0.625-0.09,0.932-0.148
	c0.154-0.029,0.304-0.069,0.457-0.102c0.261-0.056,0.523-0.109,0.78-0.175c0.163-0.042,0.32-0.094,0.481-0.14
	c0.242-0.069,0.485-0.134,0.723-0.211c0.178-0.058,0.351-0.127,0.527-0.189c0.213-0.076,0.429-0.147,0.638-0.23
	c0.193-0.077,0.38-0.164,0.571-0.246c0.186-0.08,0.375-0.156,0.558-0.242c0.196-0.092,0.385-0.194,0.577-0.292
	c0.17-0.087,0.344-0.168,0.511-0.26c0.206-0.112,0.404-0.235,0.606-0.354c0.146-0.087,0.296-0.168,0.44-0.258
	c0.218-0.136,0.428-0.283,0.639-0.427c0.12-0.082,0.244-0.159,0.362-0.243c0.222-0.158,0.435-0.326,0.649-0.492
	c0.102-0.079,0.207-0.154,0.308-0.234c0.229-0.185,0.449-0.379,0.67-0.573c0.079-0.069,0.161-0.135,0.239-0.205
	c0.233-0.212,0.457-0.433,0.68-0.655c0.059-0.059,0.121-0.114,0.179-0.173C444.803,498.213,445.025,497.969,445.244,497.722z"/>
<path style="fill:#53E7D3;" d="M256,7.481c-82.141,0-148.729,66.588-148.729,148.729c0,102.842,107.364,238.48,139.652,276.945
	c4.739,5.646,13.415,5.646,18.154,0c32.288-38.465,139.652-174.102,139.652-276.945C404.729,74.07,338.141,7.481,256,7.481z
	 M256,235.049c0,0-82.102-32.127-82.102-89.821c0-25.361,20.559-45.92,45.92-45.92c14.695,0,27.778,6.904,36.183,17.644
	c8.405-10.74,21.487-17.644,36.183-17.644c25.361,0,45.92,20.559,45.92,45.92C338.102,202.922,256,235.049,256,235.049z"/>
<path style="fill:#1BCCC7;" d="M256,7.481c-8.952,0-17.718,0.792-26.234,2.307C299.395,22.18,352.261,83.02,352.261,156.21
	c0,85.796-53.59,205.012-96.434,281.17c3.411,0.05,6.84-1.353,9.25-4.225c32.288-38.465,139.652-174.102,139.652-276.945
	C404.729,74.07,338.141,7.481,256,7.481z"/>
<path d="M256,242.531c0.925,0,1.85-0.171,2.726-0.514s21.699-8.576,42.786-24.236c28.832-21.413,44.072-46.5,44.072-72.552
	c0-29.445-23.956-53.4-53.401-53.4c-13.603,0-26.393,5.06-36.183,14.112c-9.789-9.052-22.58-14.112-36.183-14.112
	c-29.446,0-53.401,23.955-53.401,53.4c0,26.052,15.24,51.139,44.072,72.552c21.086,15.66,41.909,23.893,42.786,24.236
	C254.15,242.359,255.075,242.531,256,242.531z M181.379,145.228c0-21.195,17.243-38.438,38.439-38.438
	c11.903,0,22.943,5.385,30.291,14.772c1.418,1.812,3.591,2.871,5.891,2.871c2.301,0,4.474-1.059,5.891-2.871
	c7.348-9.388,18.388-14.772,30.291-14.772c21.195,0,38.439,17.243,38.439,38.438c0,46.249-60.886,75.656-74.626,81.7
	C242.244,220.899,181.379,191.577,181.379,145.228z"/>
<path d="M256,444.871c5.726,0,11.123-2.517,14.807-6.906C303.978,398.447,412.21,261.34,412.21,156.21
	C412.21,70.076,342.135,0,256,0S99.789,70.076,99.789,156.21c0,105.13,108.232,242.237,141.403,281.755
	C244.877,442.354,250.273,444.871,256,444.871z M256,14.962c77.885,0,141.248,63.363,141.248,141.248
	c0,100.075-105.551,233.595-137.901,272.134c-1.142,1.361-2.587,1.563-3.347,1.563c-0.76,0-2.205-0.203-3.347-1.563
	c-32.35-38.539-137.901-172.059-137.901-272.134C114.752,78.326,178.115,14.962,256,14.962z"/>
<path d="M455.951,473.999l-31.893-80.934c-4.216-10.699-14.371-17.612-25.87-17.612h-60.085c-4.132,0-7.481,3.349-7.481,7.481
	s3.349,7.481,7.481,7.481h60.085c5.311,0,10.002,3.193,11.949,8.136l31.893,80.934c1.583,4.016,1.097,8.368-1.333,11.937
	c-2.429,3.569-6.299,5.616-10.617,5.616H81.92c-4.318,0-8.187-2.047-10.617-5.616s-2.916-7.921-1.332-11.937l31.067-78.839
	c2.448-6.215,8.347-10.23,15.026-10.23h55.875c4.132,0,7.481-3.349,7.481-7.481s-3.35-7.481-7.481-7.481h-55.875
	c-12.868,0-24.23,7.735-28.947,19.706L56.05,473.999c-3.377,8.568-2.299,18.23,2.884,25.842C64.117,507.455,72.71,512,81.92,512
	h348.16c9.21,0,17.802-4.545,22.985-12.158C458.248,492.228,459.327,482.568,455.951,473.999z"/>
<g>
</g>
<g>
</g>
<g>
</g>
<g>
</g>
<g>
</g>
<g>
</g>
<g>
</g>
<g>
</g>
<g>
</g>
<g>
</g>
<g>
</g>
<g>
</g>
<g>
</g>
<g>
</g>
<g>
</g>
</svg>
