<svg width="27" height="17" viewBox="0 0 27 17" fill="none" xmlns="http://www.w3.org/2000/svg">
<g id="Group">
<path id="Vector" d="M0.402344 16.0273C0.402344 16.5475 0.732495 16.8777 1.25273 16.8777H1.85301C2.36324 16.8777 2.70339 16.5475 2.70339 16.0273V14.5467C2.81345 14.5767 3.1436 14.5967 3.38371 14.5967H22.7725C23.0127 14.5967 23.3429 14.5767 23.4529 14.5467V16.0273C23.4529 16.5475 23.793 16.8777 24.3033 16.8777H24.9035C25.4238 16.8777 25.7539 16.5475 25.7539 16.0273V10.0646C25.7539 8.15375 24.6934 7.10327 22.7826 7.10327H3.3737C1.46283 7.10327 0.402344 8.15375 0.402344 10.0646V16.0273Z" fill="#333333"/>
<path id="Vector_2" d="M2.80078 5.6726H5.34194V4.23194C5.34194 3.30151 5.86218 2.79128 6.81262 2.79128H10.5443C11.4847 2.79128 12.005 3.30151 12.005 4.23194V5.6726H14.276V4.23194C14.276 3.30151 14.7962 2.79128 15.7967 2.79128H19.2984C20.2988 2.79128 20.819 3.30151 20.819 4.23194V5.6726H23.3702V2.80129C23.3702 0.950434 22.3697 0 20.5689 0H5.59206C3.79124 0 2.80078 0.950434 2.80078 2.80129V5.6726Z" fill="#333333"/>
</g>
</svg>
