<svg width="22" height="21" viewBox="0 0 22 21" fill="none" xmlns="http://www.w3.org/2000/svg">
<g id="Group 81">
<g id="menu">
<path d="M6.544 20.9201H6.89992V18.0959C6.89992 16.6483 6.13146 16 5.19314 16C4.43277 16 3.76948 16.4263 3.55107 17.3499C3.33267 16.4263 2.68555 16 1.92518 16C1.22953 16 0.622853 16.3641 0.364005 17.1456V16.0977H0V20.9201H0.364005V18.3535C0.364005 17.0036 0.994947 16.3464 1.86856 16.3464C2.71791 16.3464 3.27605 16.9503 3.27605 18.1226V20.9201H3.63196V18.3535C3.63196 17.0036 4.27099 16.3464 5.13652 16.3464C5.98586 16.3464 6.544 16.9503 6.544 18.1226V20.9201Z" fill="#4F4F4F"/>
<path d="M10.0926 16.373C10.9824 16.373 11.8398 16.9947 11.7832 18.3357H8.3373C8.37774 17.0036 9.19473 16.373 10.0926 16.373ZM12.1149 19.3393H11.7347C11.5891 20.1385 10.9662 20.6448 10.1007 20.6448C9.19473 20.6448 8.36965 20.0053 8.3373 18.6643H12.131C12.1472 18.5044 12.1472 18.3979 12.1472 18.1847C12.1472 17.0657 11.4192 16.0355 10.1007 16.0355C8.85499 16.0355 7.9652 16.968 7.9652 18.5044C7.9652 20.0497 8.87117 20.9911 10.1007 20.9911C11.2251 20.9911 11.945 20.2895 12.1149 19.3393Z" fill="#4F4F4F"/>
<path d="M16.6447 20.9201H17.0006V18.0959C17.0006 16.6483 16.2079 16 15.2291 16C14.5011 16 13.8702 16.373 13.6113 17.119V16.0977H13.2473V20.9201H13.6113V18.3179C13.6113 16.9769 14.2584 16.3464 15.1725 16.3464C16.0542 16.3464 16.6447 16.9503 16.6447 18.1226V20.9201Z" fill="#4F4F4F"/>
<path d="M22 16.0977H21.636V18.6821C21.636 20.0231 20.9889 20.6536 20.0748 20.6536C19.1931 20.6536 18.6026 20.0586 18.6026 18.8774V16.0977H18.2467V18.9041C18.2467 20.3606 19.0475 21 20.0263 21C20.7462 21 21.3852 20.627 21.636 19.8721V20.9201H22V16.0977Z" fill="#4F4F4F"/>
</g>
<rect id="Rectangle 268" width="22" height="2" rx="1" fill="#4F4F4F"/>
<rect id="Rectangle 269" y="8" width="14" height="2" rx="1" fill="#4F4F4F"/>
</g>
</svg>
