<svg width="26" height="25" viewBox="0 0 26 25" fill="none" xmlns="http://www.w3.org/2000/svg">
<path id="Vector" d="M19.9319 15.2444H22.3971V17.753L19.9319 15.2444ZM18.8152 11.5995C19.8055 11.5995 20.6062 12.4142 20.6062 13.422H22.3971C22.3971 11.4065 20.7958 9.77701 18.8152 9.77701H14.5592L16.3501 11.5995H18.8152ZM24.188 19.5969L25.9789 21.4194V15.2659H24.188V19.5969ZM14.3485 2.46569V0.643225C11.9887 0.643225 9.98703 2.2084 9.24959 4.37393L10.7666 5.91767C10.872 4.00943 12.4311 2.46569 14.3274 2.46569H14.3485ZM1.79092 15.2444C0.800648 15.2444 0 16.0592 0 17.0669V20.7118C0 21.7196 0.800648 22.5343 1.79092 22.5343H19.5105L12.3468 15.2444H1.79092ZM24.2091 13.422H26C26 10.1201 23.8298 7.31132 20.859 6.41081C21.3015 5.78902 21.5332 5.06003 21.5332 4.28816C21.5332 2.27273 19.9319 0.643225 17.9514 0.643225V2.46569C18.9417 2.46569 19.7423 3.28045 19.7423 4.28816C19.7423 5.29588 18.9417 6.11063 17.9514 6.11063V7.9331H18.8574C21.8282 7.9331 24.2301 10.3774 24.2301 13.4005L24.2091 13.422ZM1.15883 1.28645L24.4619 25L25.7261 23.7136L2.42301 0L1.15883 1.28645Z" fill="#333333"/>
</svg>
