<svg id="Layer_1" viewBox="0 0 1000 1000" xmlns="http://www.w3.org/2000/svg" data-name="Layer 1"><path d="m479.36 613a16 16 0 0 1 -7.36-1.8l-384.83-198.12a16 16 0 0 1 .83-28.83l384.82-172.44a16 16 0 0 1 13.08 0l384.88 172.44a16 16 0 0 1 .78 28.83l-384.87 198.12a16 16 0 0 1 -7.33 1.8zm-348-213.12 348 179.12 348-179.13-348-155.91z"/><path d="m864.24 558.9a16 16 0 0 1 -16-16v-128h-288.9a16 16 0 0 1 0-32h304.89a16 16 0 0 1 16 16v144a16 16 0 0 1 -15.99 16z"/><path d="m517.19 457a58.15 58.15 0 1 1 58.15-58.15 58.22 58.22 0 0 1 -58.15 58.15zm0-84.3a26.15 26.15 0 1 0 26.15 26.15 26.18 26.18 0 0 0 -26.15-26.15z"/><path d="m864.24 641.45a57.28 57.28 0 1 1 57.27-57.28 57.35 57.35 0 0 1 -57.27 57.28zm0-82.55a25.28 25.28 0 1 0 25.27 25.27 25.31 25.31 0 0 0 -25.27-25.27z"/><path d="m479.36 789.59a15.88 15.88 0 0 1 -4.63-.69l-231.61-70a16 16 0 0 1 -11.37-15.31v-225.85a16 16 0 0 1 32 0v214l215.61 65.16 215.64-65.19v-214a16 16 0 0 1 32 0v225.88a16 16 0 0 1 -11.4 15.31l-231.6 70a15.88 15.88 0 0 1 -4.64.69z"/></svg>