<svg width="23" height="21" viewBox="0 0 23 21" fill="none" xmlns="http://www.w3.org/2000/svg">
<g id="Vector">
<path id="Vector_2" d="M4.53609 20.5469C4.93649 20.8594 5.4443 20.752 6.04977 20.3125L11.2158 16.5137L16.3916 20.3125C16.997 20.752 17.4951 20.8594 17.9052 20.5469C18.3056 20.2441 18.3935 19.7461 18.1494 19.0332L16.1084 12.959L21.3232 9.20898C21.9287 8.7793 22.1728 8.33008 22.0166 7.8418C21.8603 7.37305 21.4013 7.13867 20.6494 7.14844L14.2529 7.1875L12.3095 1.08398C12.0752 0.361328 11.7236 0 11.2158 0C10.7177 0 10.3662 0.361328 10.1318 1.08398L8.18844 7.1875L1.79195 7.14844C1.04 7.13867 0.581017 7.37305 0.424767 7.8418C0.258751 8.33008 0.512657 8.7793 1.11813 9.20898L6.33297 12.959L4.29195 19.0332C4.04781 19.7461 4.1357 20.2441 4.53609 20.5469Z" fill="#FAC917"/>
</g>
</svg>
