<svg width="27" height="21" viewBox="0 0 27 21" fill="none" xmlns="http://www.w3.org/2000/svg">
<g id="Group">
<path id="Vector" d="M3.48134 16.6176H23.3504C24.9512 16.6176 25.9216 15.6372 25.9216 14.0464V2.57118C25.9216 0.980448 24.9512 0 23.3504 0H3.48134C1.8906 0 0.910156 0.980448 0.910156 2.57118V14.0464C0.910156 15.6372 1.8906 16.6176 3.48134 16.6176ZM3.51134 15.0068C2.89106 15.0068 2.5209 14.6367 2.5209 14.0264V2.59119C2.5209 1.9809 2.89106 1.61074 3.51134 1.61074H23.3204C23.9407 1.61074 24.3109 1.9809 24.3109 2.59119V14.0264C24.3109 14.6367 23.9407 15.0068 23.3204 15.0068H3.51134ZM8.38357 20.0091H18.4481C18.8883 20.0091 19.2586 19.649 19.2586 19.1987C19.2586 18.7486 18.8883 18.3884 18.4481 18.3884H8.38357C7.94337 18.3884 7.57321 18.7486 7.57321 19.1987C7.57321 19.649 7.94337 20.0091 8.38357 20.0091Z" fill="#333333"/>
<path id="Vector_2" d="M4.5109 13.6461H22.3391C22.7693 13.6461 22.9494 13.446 22.9494 13.0058V3.6215C22.9494 3.1813 22.7693 2.99121 22.3391 2.99121H4.5109C4.0807 2.99121 3.89062 3.1813 3.89062 3.6215V13.0058C3.89062 13.446 4.0807 13.6461 4.5109 13.6461Z" fill="#333333"/>
</g>
</svg>
