<svg width="24" height="17" viewBox="0 0 24 17" fill="none" xmlns="http://www.w3.org/2000/svg">
<g id="Group">
<path id="Vector" d="M1.51222 7.01321C1.71231 7.2033 1.99244 7.2033 2.18252 7.00321C4.64365 4.39201 7.88513 3.01138 11.5168 3.01138C15.1685 3.01138 18.43 4.40202 20.8711 7.01321C21.0512 7.19329 21.3212 7.18329 21.5213 6.9932L22.902 5.61258C23.0821 5.43248 23.0721 5.21239 22.932 5.04232C20.581 2.14098 16.1589 0.0100098 11.5168 0.0100098C6.88467 0.0100098 2.44264 2.14098 0.101569 5.04232C-0.038495 5.21239 -0.038495 5.43248 0.131583 5.61258L1.51222 7.01321Z" fill="#333333"/>
<path id="Vector_2" d="M5.6628 11.1952C5.8829 11.4053 6.15303 11.3753 6.35312 11.1552C7.55366 9.82459 9.51457 8.85416 11.5155 8.86416C13.5364 8.85416 15.4973 9.85461 16.7178 11.1853C16.8979 11.3953 17.1481 11.3853 17.3681 11.1853L18.9189 9.64451C19.0789 9.48444 19.099 9.26434 18.9489 9.08426C17.4382 7.23342 14.6369 5.84277 11.5155 5.84277C8.39406 5.84277 5.59277 7.23342 4.08208 9.08426C3.93201 9.26434 3.94201 9.46443 4.11209 9.64451L5.6628 11.1952Z" fill="#333333"/>
<path id="Vector_3" d="M11.5189 16.6376C11.739 16.6376 11.9291 16.5376 12.3193 16.1574L14.7604 13.8163C14.9105 13.6662 14.9504 13.4461 14.8104 13.266C14.16 12.4257 12.9296 11.6953 11.5189 11.6953C10.0682 11.6953 8.83765 12.4557 8.18736 13.3261C8.08731 13.4862 8.12733 13.6662 8.2874 13.8163L10.7185 16.1574C11.1087 16.5275 11.2988 16.6376 11.5189 16.6376Z" fill="#333333"/>
</g>
</svg>
