<?xml version="1.0" encoding="iso-8859-1"?>
<!-- Generator: Adobe Illustrator 19.0.0, SVG Export Plug-In . SVG Version: 6.00 Build 0)  -->
<svg version="1.1" id="Capa_1" xmlns="http://www.w3.org/2000/svg" xmlns:xlink="http://www.w3.org/1999/xlink" x="0px" y="0px"
	 viewBox="0 0 496 496" style="enable-background:new 0 0 496 496;" xml:space="preserve">
<path style="fill:#F9E0A6;" d="M280,8c-44.184,0-80,35.816-80,80c0,26.176,12.568,49.408,32,64.008l32.152,14.424
	C269.272,167.456,274.576,168,280,168c44.184,0,80-35.816,80-80S324.184,8,280,8z"/>
<path style="fill:#8C95A4;" d="M176,160h-32c-8.84,0-16,7.16-16,16v160c0,8.84,7.16,16,16,16h8l40-48V176
	C192,167.16,184.84,160,176,160z"/>
<path style="fill:#92E0C0;" d="M328.008,160H256l-40,120h144v-56C360,197.832,347.432,174.592,328.008,160z"/>
<path style="fill:#D3A06C;" d="M376,256h-16v112h16h48v-64C424,277.488,402.512,256,376,256z"/>
<path style="fill:#798699;" d="M192,251.56l-17.904,10.84c-22.776,21.12-38.512,49.584-43.904,81.56
	c2.768,4.784,7.88,8.04,13.808,8.04h8l40-48V251.56z"/>
<path style="fill:#EABD8C;" d="M272,248c-14.024,0-27.488,2.408-40,6.832L190.416,280C166.784,301.912,152,333.232,152,368
	c0,66.272,53.728,120,120,120s120-53.728,120-120S338.272,248,272,248z M272,440c-39.768,0-72-32.232-72-72s32.232-72,72-72
	s72,32.232,72,72S311.768,440,272,440z"/>
<path style="fill:#92E0C0;" d="M261.432,189.136c1.688-3.376,2.568-7.104,2.568-10.88v-1.92c0-13.44-10.896-24.336-24.336-24.336
	c-9.544,0-18.2,5.576-22.152,14.264l-26.504,58.312L232,248L261.432,189.136z"/>
<path style="fill:#F9E0A6;" d="M191.008,224.576l-2.464,5.416c-2.992,6.6-4.544,13.752-4.544,20.992
	c0,13.456,5.344,26.36,14.856,35.872l50.512,50.512c4.24,4.24,10,6.624,16,6.624C277.872,344,288,333.872,288,321.376
	c0-6-2.384-11.76-6.624-16L232,256v-8L191.008,224.576z"/>
<g>
	<path style="fill:#ECECEC;" d="M48,176c-8.84,0-16,7.16-16,16s7.16,16,16,16h80v-32H48z"/>
	<path style="fill:#ECECEC;" d="M96,288v32c0,8.84,7.16,16,16,16h16v-64h-16C103.16,272,96,279.16,96,288z"/>
	<path style="fill:#ECECEC;" d="M448,416h-72l-8,32h80c8.84,0,16-7.16,16-16S456.84,416,448,416z"/>
</g>
<path style="fill:#8C95A4;" d="M424,368h-32l-8,48h40c13.256,0,24-10.744,24-24S437.256,368,424,368z"/>
<circle style="fill:#ECECEC;" cx="272" cy="368" r="24"/>
<path d="M451.36,408.336c2.88-4.8,4.64-10.344,4.64-16.336c0-14.864-10.24-27.288-24-30.864V304c0-30.88-25.12-56-56-56h-8v-24
	c0-26.84-11.936-51.488-32.28-67.952C355.408,139.896,368,115.392,368,88c0-48.52-39.48-88-88-88s-88,39.48-88,88
	c0,24.352,9.752,46.952,27.064,63.488c-3.704,3.064-6.768,6.928-8.824,11.464L200,185.464V176c0-13.232-10.768-24-24-24h-32
	c-10.416,0-19.216,6.712-22.528,16H48c-13.232,0-24,10.768-24,24s10.768,24,24,24h72v48h-8c-13.232,0-24,10.768-24,24v32
	c0,13.232,10.768,24,24,24h9.472c3.312,9.288,12.112,16,22.528,16h0.416c-0.168,2.664-0.416,5.32-0.416,8
	c0,70.576,57.424,128,128,128c36.488,0,69.368-15.424,92.712-40H448c13.232,0,24-10.768,24-24
	C472,419.92,463,409.992,451.36,408.336z M440,392c0,8.824-7.176,16-16,16h-30.488c3.352-10.168,5.392-20.896,6.088-32H424
	C432.824,376,440,383.176,440,392z M376,264c22.056,0,40,17.944,40,40v56h-16.408c-1.816-29.184-13.4-55.712-31.592-76.376V264H376z
	 M323.2,166.4c18.304,13.744,28.8,34.744,28.8,57.6v44.24C330.064,250.616,302.264,240,272,240c-9.744,0-19.344,1.184-28.728,3.344
	l25.312-50.624c2.24-4.464,3.416-9.464,3.416-14.464v-1.928c0-0.248-0.064-0.48-0.072-0.728c2.68,0.248,5.376,0.4,8.072,0.4
	c15.184,0,29.488-3.872,41.968-10.672L323.2,166.4z M225.152,324.464l18.56,18.56c1.4,1.4,2.928,2.64,4.536,3.728
	c-3.352,3.744-5.816,8.24-7.112,13.248H208.56C210.24,346.736,216.024,334.288,225.152,324.464z M272,384c-8.824,0-16-7.176-16-16
	s7.176-16,16-16s16,7.176,16,16S280.824,384,272,384z M241.136,376c0.752,2.904,1.904,5.632,3.4,8.152l-23.024,23.024
	c-6.88-8.848-11.488-19.52-12.952-31.184h32.576V376z M255.848,395.464c2.528,1.488,5.248,2.64,8.152,3.4v32.584
	c-11.664-1.464-22.336-6.072-31.184-12.952L255.848,395.464z M280,398.864c2.904-0.752,5.632-1.904,8.152-3.4l23.024,23.024
	c-8.848,6.88-19.52,11.488-31.184,12.952v-32.576H280z M322.496,407.184l-23.024-23.024c1.488-2.528,2.64-5.248,3.4-8.152h32.584
	C333.984,387.664,329.376,398.336,322.496,407.184z M302.864,360c-2.096-8.048-7.184-14.84-14.08-19.12
	c4.44-5.32,7.216-12.064,7.216-19.512c0-4.952-1.296-9.664-3.504-13.944c22.816,7.744,39.864,27.992,42.952,52.576H302.864z
	 M275.712,311.024c2.768,2.768,4.288,6.44,4.288,10.344c0,8.072-6.56,14.632-14.632,14.632c-3.904,0-7.576-1.52-10.344-4.288
	L204.512,281.2C196.448,273.136,192,262.4,192,250.992c0-5.464,1.08-10.76,3.088-15.8L224,252.528v6.784L275.712,311.024z M208,88
	c0-39.696,32.304-72,72-72s72,32.304,72,72s-32.304,72-72,72c-4.472,0-8.928-0.456-13.272-1.264
	C260.952,149.888,251,144,239.664,144c-1.48,0-2.944,0.12-4.384,0.32C217.96,130.568,208,110.192,208,88z M224.8,169.568
	L224.8,169.568c2.64-5.808,8.48-9.568,14.864-9.568c9.008,0,16.336,7.328,16.336,16.336v1.928c0,2.52-0.6,5.04-1.728,7.304
	l-25.568,51.136l-27.048-16.224L224.8,169.568z M48,200c-4.408,0-8-3.592-8-8s3.592-8,8-8h72v16H48z M104,320v-32
	c0-4.408,3.592-8,8-8h8v48h-8C107.592,328,104,324.408,104,320z M144,344c-4.408,0-8-3.592-8-8V176c0-4.408,3.592-8,8-8h32
	c4.408,0,8,3.592,8,8v44.664l-2.736,6.024c-3.496,7.688-5.264,15.864-5.264,24.304c0,9.2,2.16,18.056,6.136,26.064
	c-18.464,18.272-30.896,41.688-35.752,66.944H144z M272,480c-61.76,0-112-50.24-112-112c0-28.904,11.432-56.744,31.368-77.512
	c0.616,0.672,1.184,1.376,1.84,2.024l20.648,20.648C199.928,327.944,192,347.544,192,368c0,44.112,35.888,80,80,80s80-35.888,80-80
	c0-42.936-34.024-77.976-76.512-79.824l-29.144-29.144C254.712,257.072,263.288,256,272,256c61.76,0,112,50.24,112,112
	S333.76,480,272,480z M448,440h-70.256c3.464-5.064,6.456-10.448,9.176-16H424h24c4.408,0,8,3.592,8,8S452.408,440,448,440z"/>
<g>
</g>
<g>
</g>
<g>
</g>
<g>
</g>
<g>
</g>
<g>
</g>
<g>
</g>
<g>
</g>
<g>
</g>
<g>
</g>
<g>
</g>
<g>
</g>
<g>
</g>
<g>
</g>
<g>
</g>
</svg>
