<svg width="27" height="27" viewBox="0 0 27 27" fill="none" xmlns="http://www.w3.org/2000/svg">
<g id="Group">
<path id="Vector" d="M13.2163 26.2419C14.1767 26.2419 14.8071 25.9418 14.8071 25.4615C14.8071 24.8313 14.627 23.0404 14.627 21.6198C14.627 19.869 16.0276 16.9177 17.8484 13.436L16.5178 12.7157C15.1272 15.2368 14.6069 16.2474 14.0367 17.5179L13.9867 12.7357L12.3759 12.6458L12.3959 17.528C11.8357 16.2573 11.2354 15.1368 10.0048 13.0159L8.98438 14.3765C10.395 16.9177 11.8057 19.869 11.8057 21.6198C11.8057 23.0404 11.6256 24.8313 11.6256 25.4615C11.6256 25.9418 12.2559 26.2419 13.2163 26.2419Z" fill="#333333"/>
<path id="Vector_2" d="M0.269531 15.8173C0.269531 18.2284 1.89027 19.8991 4.23135 19.8991C4.97168 19.8991 5.76205 19.7091 6.61244 19.2889C7.23272 19.8491 8.75341 20.6395 10.5243 20.7095C10.1741 19.1188 9.08357 16.9178 8.42326 15.7072C9.96396 15.5672 10.8344 14.7368 11.2345 13.5963C11.7848 13.9965 12.4151 14.2066 13.2154 14.2066C14.0159 14.2066 14.6461 13.9965 15.1963 13.5963C15.5965 14.7368 16.4669 15.5672 18.0077 15.7072C17.3473 16.9178 16.2569 19.1188 15.9067 20.7095C17.6775 20.6395 19.1982 19.8491 19.8184 19.2889C20.6689 19.7091 21.4592 19.8991 22.1995 19.8991C24.5406 19.8991 26.1613 18.2284 26.1613 15.8173C26.1613 14.5967 25.6612 13.3062 24.5106 12.1556C25.4211 11.2052 25.7912 10.0747 25.7912 8.96417C25.7912 6.57308 23.9503 4.36206 21.6493 4.09194C21.5493 1.78088 18.9781 0.130127 16.517 0.130127C15.2564 0.130127 14.0858 0.520305 13.2154 1.42072C12.345 0.520305 11.1745 0.130127 9.91394 0.130127C7.45282 0.130127 4.88164 1.78088 4.7816 4.09194C2.48054 4.36206 0.629695 6.57308 0.629695 8.96417C0.629695 10.0747 1.00987 11.2052 1.92029 12.1556C0.76976 13.3062 0.269531 14.5967 0.269531 15.8173Z" fill="#333333"/>
</g>
</svg>
