<svg version="1.1" id="Capa_1" xmlns="http://www.w3.org/2000/svg" xmlns:xlink="http://www.w3.org/1999/xlink" x="0px" y="0px" viewBox="0 0 512 512" style="enable-background:new 0 0 512 512;" xml:space="preserve">
<g>
	<g>
		<path style="fill:#60B7FF;" d="M109.771,441.22l-7.847-1.46l-0.059,0.011h0c-12.055,2.495-23.206,7.46-32.897,14.361&#10;&#9;&#9;&#9;l-1.873,10.029c16.438,10.102,19.888,16.479,21.538,35.682l9.47,4.654h33.798l5.942-4.159&#10;&#9;&#9;&#9;C136.194,475.813,126.209,454.122,109.771,441.22z"/>
		<path style="fill:#60B7FF;" d="M444.006,460.101v-5.589c-9.651-6.981-20.781-12.024-32.824-14.605l-8.017,1.258&#10;&#9;&#9;&#9;c-16.147,13.038-23.247,34.804-24.881,59.229l3.806,4.104h33.466l4.122-3.223C421.312,482.272,427.859,470.245,444.006,460.101z"/>
		<path style="fill:#FFD9E1;" d="M319.63,412.64l-8.57,27.27C281.91,472,231.5,472.28,202,440.53l-9.08-28.04&#10;&#9;&#9;&#9;c2.49-3.44,4.37-7.34,5.48-11.53c0.76-2.86,9.903-5.596,9.903-8.676l-8.743-37.734h113.32l-7.586,35.973&#10;&#9;&#9;&#9;c0,3.08,7.986,7.577,8.756,10.437C315.17,405.21,317.09,409.16,319.63,412.64z"/>
		<g>
			<path style="fill:#FFC4C8;" d="M314.05,400.96l-4.61,3.47c-15.19,11.43-33.27,17.47-52.28,17.47c-0.31,0-0.63-0.01-0.94-0.01&#10;&#9;&#9;&#9;&#9;c-0.31,0-0.62,0.01-0.94,0.01c-19.01,0-37.08-6.04-52.27-17.47l-4.61-3.47c0.76-2.86,1.16-5.87,1.16-8.95v-37.46h113.32v37.46&#10;&#9;&#9;&#9;&#9;C312.88,395.09,313.28,398.1,314.05,400.96z"/>
		</g>
		<path style="fill:#EEF5F6;" d="M476.178,499.349c-5.666-18.35-17.12-33.948-32.172-44.837l-0.081,0.052&#10;&#9;&#9;&#9;c-16.147,10.144-26.612,27.269-28.245,46.272l-0.124,3.662h56.823C475.056,504.498,476.968,501.906,476.178,499.349z"/>
		<path style="fill:#EEF5F6;" d="M69.162,454.246l-0.194-0.113c-15.314,10.904-26.969,26.652-32.702,45.216&#10;&#9;&#9;&#9;c-0.79,2.558,1.122,5.149,3.799,5.149h58.039l-0.184-3.662C96.269,481.633,85.599,464.348,69.162,454.246z"/>
		<path style="fill:#8AC9FE;" d="M411.18,439.91l-0.53,0.41c-16.15,13.04-26.61,35.05-28.24,59.47l-0.32,4.71H131.9l-0.56-4.68&#10;&#9;&#9;&#9;c-1.65-24.52-12.32-46.6-28.76-59.5l-0.66-0.56l69.28-13.41c9.01-1.74,16.65-6.85,21.72-13.86l9.08,10.06&#10;&#9;&#9;&#9;c12.74,13.71,29.37,21.45,46.5,23.23c2.49,0.265,3.943,10.691,6.447,10.699c2.504,0.008,6.058-10.404,8.553-10.649&#10;&#9;&#9;&#9;c17.58-1.71,34.65-9.69,47.56-23.9l8.57-9.29c5.07,6.93,12.67,11.98,21.62,13.71l69.33,13.42&#10;&#9;&#9;&#9;C410.78,439.81,410.98,439.86,411.18,439.91z"/>
		<g>
			<g>
				<g>
					<g>
						<path style="fill:#EEF5F6;" d="M479.771,59.025c0.46,2.967,3.956,261.199,3.479,264.28&#10;&#9;&#9;&#9;&#9;&#9;&#9;&#9;c0.312,0.162,18.191,11.193,18.191,23.279l0.954,18.509l-19.081-0.382c-11.867,0-20.108-8.144-24.996-18.127&#10;&#9;&#9;&#9;&#9;&#9;&#9;&#9;c-2.47,0.547-42.285,6.742-63.731,11.067c-2.911,0.587-23.11,8.194-25.209,8.492c-104.522,14.862-193.226,9.517-296.97-11.347&#10;&#9;&#9;&#9;&#9;&#9;&#9;&#9;l0,0c-3.049-0.613-6.099-4.705-9.144-5.35c-2.805-0.594-5.608,2.266-8.411,1.645c-4.888,9.983-15.148,16.87-27.015,16.87H10.5&#10;&#9;&#9;&#9;&#9;&#9;&#9;&#9;c-1.657,0-3-1.343-3-3v-17.336c0-12.063,7.118-22.474,17.367-27.257c0.081-0.035,0.162-0.069,0.243-0.104&#10;&#9;&#9;&#9;&#9;&#9;&#9;&#9;c0.254-0.116,0.508-0.225,0.763-0.341c-0.457-2.951,2.569-5.897,2.146-8.85c-0.443-3.093-4.333-6.194-4.735-9.291&#10;&#9;&#9;&#9;&#9;&#9;&#9;&#9;c-9.891-74.666-9.891-150.297,0-224.963c0.383-2.947,3.095-4.736,3.515-7.68c0.442-3.103-1.407-7.36-0.927-10.461&#10;&#9;&#9;&#9;&#9;&#9;&#9;&#9;c-0.254-0.104-0.497-0.22-0.751-0.335C14.733,53.618,7.5,43.138,7.5,30.982V13.646c0-1.657,1.343-3,3-3h17.336&#10;&#9;&#9;&#9;&#9;&#9;&#9;&#9;c11.867,0,22.127,6.875,27.015,16.858c3.391-0.751,7.938,1.985,11.332,1.275c2.457-0.514,3.759-4.483,6.22-4.973&#10;&#9;&#9;&#9;&#9;&#9;&#9;&#9;C176.152,2.934,272.433-1.453,376.955,13.408c2.343,0.333,16.178,5.92,18.394,6.381c14.395,2.994,61.591,9.237,63.54,9.668&#10;&#9;&#9;&#9;&#9;&#9;&#9;&#9;c4.888-9.983,13.408-15.074,25.275-15.074l15.411,1.188l1.483,15.411C501.058,43.138,480.025,58.921,479.771,59.025z"/>
					</g>
					<path style="fill:#DEECF1;" d="M486.902,58.332c10.388-4.726,17.598-15.194,17.598-27.35V13.646c0-1.657-1.343-3-3-3h-17.336&#10;&#9;&#9;&#9;&#9;&#9;&#9;c-11.867,0-22.115,6.875-27.003,16.858c-1.948-0.431-10.25,2.753-12.201,2.335c-3.9-0.837-1.452-5.256-5.36-6.042&#10;&#9;&#9;&#9;&#9;&#9;&#9;c-11.261-2.265-51.326-8.545-62.644-10.388c7.721,45.125,14.54,111.759,14.54,173.225c0,30.71-1.782,58.448-4.334,82.427&#10;&#9;&#9;&#9;&#9;&#9;&#9;c-6.44,60.509-73.894,106.14-73.894,106.14c26.994-4.12,111.399-17.401,126.326-20.403c3.053-0.613,6.103-4.704,9.147-5.349&#10;&#9;&#9;&#9;&#9;&#9;&#9;c2.808-0.594,5.608,2.265,8.414,1.643c4.888,9.983,15.142,16.87,27.009,16.87H501.5c1.657,0,3-1.343,3-3v-17.336&#10;&#9;&#9;&#9;&#9;&#9;&#9;c0-12.086-7.129-22.508-17.413-27.281c-0.324-0.116-0.647-0.26-0.959-0.422c0.477-3.081-2.53-6.157-2.091-9.24&#10;&#9;&#9;&#9;&#9;&#9;&#9;c0.423-2.963,4.294-5.934,4.679-8.901c9.902-74.666,9.902-150.297,0-224.963c-0.4-3.082-4.518-5.741-4.958-8.819&#10;&#9;&#9;&#9;&#9;&#9;&#9;c-0.425-2.969,2.829-6.355,2.37-9.322c0.254-0.104,0.497-0.22,0.751-0.335C486.891,58.332,486.891,58.332,486.902,58.332z"/>
				</g>
			</g>
		</g>
		<g>
			<path style="fill:#FFC4C8;" d="M376.001,294.813c22.815,0,41.311-20.795,41.311-46.448v-1.51&#10;&#9;&#9;&#9;&#9;c0-10.689-7.706-19.353-17.213-19.353H112.508c-9.506,0-17.213,8.665-17.213,19.353v1.51c0,25.652,18.496,46.448,41.311,46.448&#10;&#9;&#9;&#9;&#9;H376.001z"/>
		</g>
		<g>
			<path style="fill:#FFD9E1;" d="M373.204,104.284v184.272c0,25.433-11.966,49.389-32.313,64.692l-44.679,33.604&#10;&#9;&#9;&#9;&#9;c-11.836,8.902-25.945,13.238-39.99,13.035c-14.045,0.203-28.154-4.133-39.99-13.035l-44.679-33.604&#10;&#9;&#9;&#9;&#9;c-20.347-15.303-32.313-39.259-32.313-64.692V104.284H373.204z"/>
		</g>
		<path style="fill:#FFC4C8;" d="M256.865,353.79c28.948,0,10.133-31.932,0-31.932C246.732,321.858,227.916,353.79,256.865,353.79z"/>
		<path style="fill:#7A8C98;" d="M388.413,162.193l1.104,60.771h-20.14c-6.819,0-9.079,2.326-14.04-1.404&#10;&#9;&#9;&#9;c-6.113-4.596-10.518-11.501-12.466-19.449c-1.19-4.85-2.66-9.96-4.48-15.23c-4.57-13.26-15.93-22.93-29.54-26.09&#10;&#9;&#9;&#9;c-7.62-1.77-14.51-5.76-20.05-11.14l-1.56-1.53l-2.423-8.111l-8.297-2.429c-16.42,14.2-37.68,22.1-59.77,22.1h-3.28&#10;&#9;&#9;&#9;c-17.72,0-33.62,10.88-39.26,27.2c-1.82,5.27-3.29,10.38-4.47,15.23c-3.53,14.4-15.28,25.39-30.5,25.39h-19.98v-63.79&#10;&#9;&#9;&#9;c0-70.46,59.37-128.1,131.93-128.1h10.23c14.017,0,27.462,1.778,39.761,5.982C335.018,53.158,388.413,105.344,388.413,162.193z"/>
		<g>
			<path style="fill:#687C87;" d="M301.181,41.592c32.776,25.994,54.156,67.896,54.156,114.937v65.03&#10;&#9;&#9;&#9;&#9;c4.961,3.73,11.045,5.941,17.864,5.941h20.14v-63.79C393.34,106.69,354.465,58.068,301.181,41.592z"/>
		</g>
	</g>
	<g>
		<g>
			<g>
				<g>
					<path style="fill:none;stroke:#000000;stroke-width:15;stroke-linecap:round;stroke-linejoin:round;stroke-miterlimit:10;" d="&#10;&#9;&#9;&#9;&#9;&#9;&#9;M104.69,18.543c-16.663,2.445-33.281,5.297-49.84,8.555l0,0c-4.89-9.977-15.15-16.849-27.02-16.849H7.5v20.314&#10;&#9;&#9;&#9;&#9;&#9;&#9;c0,12.434,7.57,23.111,18.37,27.665c-13.35,86.46-13.35,174.448,0,260.908C15.07,323.69,7.5,334.366,7.5,346.801v20.314h20.33&#10;&#9;&#9;&#9;&#9;&#9;&#9;c11.87,0,22.13-6.871,27.02-16.849l0.565,0.154c47.223,12.918,95.383,21.19,143.807,24.816"/>
					<path style="fill:none;stroke:#000000;stroke-width:15;stroke-linecap:round;stroke-linejoin:round;stroke-miterlimit:10;" d="&#10;&#9;&#9;&#9;&#9;&#9;&#9;M411.623,361.262c15.257-3.191,30.44-6.856,45.527-10.996l0,0c4.89,9.977,15.15,16.849,27.02,16.849h20.33v-20.314&#10;&#9;&#9;&#9;&#9;&#9;&#9;c0-12.434-7.57-23.111-18.37-27.665c13.35-86.46,13.35-174.448,0-260.908c10.79-4.554,18.37-15.231,18.37-27.665V10.249h-20.33&#10;&#9;&#9;&#9;&#9;&#9;&#9;c-11.87,0-22.13,6.871-27.02,16.849l-1.307-0.255C351.469,6.447,244.751,2.181,139.401,14.043"/>
					<path style="fill:none;stroke:#000000;stroke-width:15;stroke-linecap:round;stroke-linejoin:round;stroke-miterlimit:10;" d="&#10;&#9;&#9;&#9;&#9;&#9;&#9;M313.267,375.2c21.385-1.615,42.718-4.137,63.94-7.564"/>
				</g>
				<g>
					<path style="fill:none;stroke:#000000;stroke-width:15;stroke-linecap:round;stroke-linejoin:round;stroke-miterlimit:10;" d="&#10;&#9;&#9;&#9;&#9;&#9;&#9;M56.105,110.595L56.105,110.595c12.85,50.089,13.163,102.207,0.914,152.423l-0.914,3.748"/>
					<path style="fill:none;stroke:#000000;stroke-width:15;stroke-linecap:round;stroke-linejoin:round;stroke-miterlimit:10;" d="&#10;&#9;&#9;&#9;&#9;&#9;&#9;M455.895,110.595L455.895,110.595c-12.85,50.089-13.163,102.207-0.914,152.423l0.914,3.748"/>
				</g>
			</g>
			<g>
				
					<line style="fill:none;stroke:#000000;stroke-width:15;stroke-linecap:round;stroke-linejoin:round;stroke-miterlimit:10;" x1="25.869" y1="58.224" x2="38.804" y2="63.875"/>
				
					<line style="fill:none;stroke:#000000;stroke-width:15;stroke-linecap:round;stroke-linejoin:round;stroke-miterlimit:10;" x1="54.846" y1="27.094" x2="60.504" y2="40.013"/>
				
					<line style="fill:none;stroke:#000000;stroke-width:15;stroke-linecap:round;stroke-linejoin:round;stroke-miterlimit:10;" x1="486.127" y1="58.224" x2="473.192" y2="63.875"/>
				
					<line style="fill:none;stroke:#000000;stroke-width:15;stroke-linecap:round;stroke-linejoin:round;stroke-miterlimit:10;" x1="457.15" y1="27.094" x2="451.492" y2="40.013"/>
				
					<line style="fill:none;stroke:#000000;stroke-width:15;stroke-linecap:round;stroke-linejoin:round;stroke-miterlimit:10;" x1="25.869" y1="319.137" x2="38.804" y2="313.486"/>
				
					<line style="fill:none;stroke:#000000;stroke-width:15;stroke-linecap:round;stroke-linejoin:round;stroke-miterlimit:10;" x1="54.846" y1="350.266" x2="60.504" y2="337.348"/>
				
					<line style="fill:none;stroke:#000000;stroke-width:15;stroke-linecap:round;stroke-linejoin:round;stroke-miterlimit:10;" x1="486.127" y1="319.137" x2="473.192" y2="313.486"/>
				
					<line style="fill:none;stroke:#000000;stroke-width:15;stroke-linecap:round;stroke-linejoin:round;stroke-miterlimit:10;" x1="457.15" y1="350.266" x2="451.492" y2="337.348"/>
			</g>
		</g>
		<g>
			<path style="fill:none;stroke:#000000;stroke-width:15;stroke-linecap:round;stroke-linejoin:round;stroke-miterlimit:10;" d="&#10;&#9;&#9;&#9;&#9;M139.359,294.813h-2.753c-22.815,0-41.311-20.795-41.311-46.448v-1.51c0-10.689,7.706-19.353,17.213-19.353h6.276"/>
		</g>
		<g>
			<path style="fill:none;stroke:#000000;stroke-width:15;stroke-linecap:round;stroke-linejoin:round;stroke-miterlimit:10;" d="&#10;&#9;&#9;&#9;&#9;M373.248,294.813h2.753c22.815,0,41.311-20.795,41.311-46.448v-1.51c0-10.689-7.706-19.353-17.213-19.353h-6.003"/>
		</g>
		<g>
			<path style="fill:none;stroke:#000000;stroke-width:15;stroke-linecap:round;stroke-linejoin:round;stroke-miterlimit:10;" d="&#10;&#9;&#9;&#9;&#9;M131.679,434.002l-29.814,5.77h0c-31.105,6.437-56.239,29.264-65.599,59.577l-1.59,5.149"/>
			<path style="fill:none;stroke:#000000;stroke-width:15;stroke-linecap:round;stroke-linejoin:round;stroke-miterlimit:10;" d="&#10;&#9;&#9;&#9;&#9;M199.561,374.627v17.386c0,16.753-11.895,31.153-28.364,34.341l-5.435,1.052"/>
			<path style="fill:none;stroke:#000000;stroke-width:15;stroke-linecap:round;stroke-linejoin:round;stroke-miterlimit:10;" d="&#10;&#9;&#9;&#9;&#9;M312.883,374.713v17.3c0,16.753,11.895,31.153,28.364,34.341l69.333,13.418h0c31.105,6.437,56.239,29.264,65.599,59.577&#10;&#9;&#9;&#9;&#9;l1.59,5.149"/>
		</g>
		<g>
			<path style="fill:none;stroke:#000000;stroke-width:15;stroke-linecap:round;stroke-linejoin:round;stroke-miterlimit:10;" d="&#10;&#9;&#9;&#9;&#9;M373.204,227.502v61.055c0,25.433-11.966,49.389-32.313,64.692l-44.679,33.604c-11.836,8.902-25.945,13.238-39.99,13.035&#10;&#9;&#9;&#9;&#9;c-14.045,0.203-28.154-4.133-39.99-13.035l-44.679-33.604c-20.347-15.303-32.313-39.259-32.313-64.692v-61.055"/>
		</g>
		<g>
			<path style="fill:none;stroke:#000000;stroke-width:15;stroke-linecap:round;stroke-linejoin:round;stroke-miterlimit:10;" d="&#10;&#9;&#9;&#9;&#9;M243.797,289.534c7.826,3.986,17.088,3.986,24.915,0"/>
		</g>
		<g>
			<g>
				<path style="fill:none;stroke:#000000;stroke-width:15;stroke-linecap:round;stroke-linejoin:round;stroke-miterlimit:10;" d="&#10;&#9;&#9;&#9;&#9;&#9;M282.368,239.519c11.11,7.267,24.258,7.267,35.368,0"/>
			</g>
			<g>
				<path style="fill:none;stroke:#000000;stroke-width:15;stroke-linecap:round;stroke-linejoin:round;stroke-miterlimit:10;" d="&#10;&#9;&#9;&#9;&#9;&#9;M194.773,239.519c11.11,7.267,24.258,7.267,35.368,0"/>
			</g>
		</g>
		<path style="fill:none;stroke:#000000;stroke-width:15;stroke-linecap:round;stroke-linejoin:round;stroke-miterlimit:10;" d="&#10;&#9;&#9;&#9;M256.865,353.79c28.948,0,10.133-31.932,0-31.932C246.732,321.858,227.916,353.79,256.865,353.79z"/>
		<path style="fill:none;stroke:#000000;stroke-width:15;stroke-linecap:round;stroke-linejoin:round;stroke-miterlimit:10;" d="&#10;&#9;&#9;&#9;M393.344,192.43v35.072h-18.461c-15.223,0-28.488-10.989-32.014-25.39c-1.185-4.849-2.657-9.959-4.476-15.228&#10;&#9;&#9;&#9;c-4.576-13.261-15.937-22.931-29.545-26.091c-7.623-1.77-14.51-5.761-20.052-11.146l-11.644-11.513"/>
		<path style="fill:none;stroke:#000000;stroke-width:15;stroke-linecap:round;stroke-linejoin:round;stroke-miterlimit:10;" d="&#10;&#9;&#9;&#9;M304.706,110.404l-24.388,23.694c-16.86,16.38-39.727,25.583-63.571,25.583h-3.28c-17.719,0-33.621,10.881-39.254,27.203&#10;&#9;&#9;&#9;c-1.818,5.269-3.29,10.378-4.476,15.228c-3.526,14.402-16.79,25.39-32.014,25.39h-18.461v-63.795&#10;&#9;&#9;&#9;c0-70.454,59.366-128.097,131.924-128.097h10.234c70.291,0,128.201,54.097,131.751,121.531"/>
		<path style="fill:none;stroke:#000000;stroke-width:15;stroke-linecap:round;stroke-linejoin:round;stroke-miterlimit:10;" d="&#10;&#9;&#9;&#9;M193.554,413.467l8.442,9.086c29.507,31.758,79.918,31.472,109.062-0.619l7.69-8.467"/>
		<path style="fill:none;stroke:#000000;stroke-width:15;stroke-linecap:round;stroke-linejoin:round;stroke-miterlimit:10;" d="&#10;&#9;&#9;&#9;M69.162,454.246L69.162,454.246c16.438,10.102,27.107,27.387,28.757,46.591l0.315,3.662"/>
		<path style="fill:none;stroke:#000000;stroke-width:15;stroke-linecap:round;stroke-linejoin:round;stroke-miterlimit:10;" d="&#10;&#9;&#9;&#9;M102.582,440.317L102.582,440.317c16.438,12.902,27.107,34.978,28.757,59.504l0.315,4.677"/>
		<path style="fill:none;stroke:#000000;stroke-width:15;stroke-linecap:round;stroke-linejoin:round;stroke-miterlimit:10;" d="&#10;&#9;&#9;&#9;M443.926,454.564c-16.147,10.144-26.612,27.269-28.245,46.272l-0.315,3.662"/>
		<path style="fill:none;stroke:#000000;stroke-width:15;stroke-linecap:round;stroke-linejoin:round;stroke-miterlimit:10;" d="&#10;&#9;&#9;&#9;M410.651,440.319c-16.147,13.038-26.612,35.049-28.245,59.475l-0.315,4.706"/>
		
			<line style="fill:none;stroke:#000000;stroke-width:15;stroke-linecap:round;stroke-linejoin:round;stroke-miterlimit:10;" x1="256" y1="447.076" x2="256" y2="504.319"/>
	</g>
</g>
<g>
</g>
<g>
</g>
<g>
</g>
<g>
</g>
<g>
</g>
<g>
</g>
<g>
</g>
<g>
</g>
<g>
</g>
<g>
</g>
<g>
</g>
<g>
</g>
<g>
</g>
<g>
</g>
<g>
</g>
</svg>