<svg width="17" height="22" viewBox="0 0 17 22" fill="none" xmlns="http://www.w3.org/2000/svg">
<g id="Group">
<path id="Vector" d="M3.09314 21.5199C3.48332 21.5199 3.80346 21.1997 3.80346 20.8095C3.80346 20.4193 3.48332 20.0991 3.09314 20.0991C2.70296 20.0991 2.38281 20.4193 2.38281 20.8095C2.38281 21.1997 2.70296 21.5199 3.09314 21.5199ZM6.43467 21.5199C6.82485 21.5199 7.14499 21.1997 7.14499 20.8095C7.14499 20.4193 6.82485 20.0991 6.43467 20.0991C6.04449 20.0991 5.72434 20.4193 5.72434 20.8095C5.72434 21.1997 6.04449 21.5199 6.43467 21.5199ZM9.76619 21.5199C10.1564 21.5199 10.4765 21.1997 10.4765 20.8095C10.4765 20.4193 10.1564 20.0991 9.76619 20.0991C9.37601 20.0991 9.05586 20.4193 9.05586 20.8095C9.05586 21.1997 9.37601 21.5199 9.76619 21.5199Z" fill="#333333"/>
<path id="Vector_2" d="M3.09314 18.5383C3.48332 18.5383 3.80346 18.2182 3.80346 17.8279C3.80346 17.4378 3.48332 17.1177 3.09314 17.1177C2.70296 17.1177 2.38281 17.4378 2.38281 17.8279C2.38281 18.2182 2.70296 18.5383 3.09314 18.5383ZM6.43467 18.5383C6.82485 18.5383 7.14499 18.2182 7.14499 17.8279C7.14499 17.4378 6.82485 17.1177 6.43467 17.1177C6.04449 17.1177 5.72434 17.4378 5.72434 17.8279C5.72434 18.2182 6.04449 18.5383 6.43467 18.5383ZM9.76619 18.5383C10.1564 18.5383 10.4765 18.2182 10.4765 17.8279C10.4765 17.4378 10.1564 17.1177 9.76619 17.1177C9.37601 17.1177 9.05586 17.4378 9.05586 17.8279C9.05586 18.2182 9.37601 18.5383 9.76619 18.5383Z" fill="#333333"/>
<path id="Vector_3" d="M3.09314 15.5471C3.48332 15.5471 3.80346 15.2369 3.80346 14.8367C3.80346 14.4466 3.48332 14.1265 3.09314 14.1265C2.70296 14.1265 2.38281 14.4466 2.38281 14.8367C2.38281 15.2369 2.70296 15.5471 3.09314 15.5471ZM6.43467 15.5471C6.82485 15.5471 7.14499 15.2369 7.14499 14.8367C7.14499 14.4466 6.82485 14.1265 6.43467 14.1265C6.04449 14.1265 5.72434 14.4466 5.72434 14.8367C5.72434 15.2369 6.04449 15.5471 6.43467 15.5471ZM9.76619 15.5471C10.1564 15.5471 10.4765 15.2369 10.4765 14.8367C10.4765 14.4466 10.1564 14.1265 9.76619 14.1265C9.37601 14.1265 9.05586 14.4466 9.05586 14.8367C9.05586 15.2369 9.37601 15.5471 9.76619 15.5471Z" fill="#333333"/>
<path id="Vector_4" d="M11.1651 0H8.45386C6.75309 0 5.6926 1.04047 5.6926 2.70124V4.46204H7.20329V2.70124C7.20329 1.9709 7.6735 1.5207 8.45386 1.5207H11.1651C13.3261 1.5207 14.7167 3.02138 14.7167 5.34244V20.8695C14.7167 21.3197 15.0269 21.6398 15.4671 21.6398C15.9072 21.6398 16.2274 21.3197 16.2274 20.8695V5.34244C16.2274 2.09096 14.2565 0 11.1651 0ZM0 12.2256C0 12.5858 0.300138 12.8759 0.660302 12.8759H12.2356C12.5957 12.8759 12.8859 12.5858 12.8859 12.2256C12.8859 11.8654 12.6058 11.5653 12.2556 11.5653H12.1956C12.1156 9.4143 10.7449 7.55346 8.85405 6.67305V5.9027C8.85405 4.52207 7.8536 3.5016 6.44294 3.5016C5.0323 3.5016 4.03185 4.52207 4.03185 5.9027V6.67305C2.14097 7.55346 0.770352 9.4143 0.690315 11.5653H0.640293C0.290133 11.5653 0 11.8654 0 12.2256Z" fill="#333333"/>
</g>
</svg>
