<svg width="24" height="23" viewBox="0 0 24 23" fill="none" xmlns="http://www.w3.org/2000/svg">
<g id="Group">
<path id="Vector" d="M15.228 21.5699V2.54116C15.228 0.900411 14.3276 0 12.6968 0H4.63313C2.98237 0 2.11197 0.900411 2.11197 2.54116V21.5699H15.228ZM4.96327 10.4448C4.23294 10.4448 3.79274 10.0446 3.79274 9.37429V2.77127C3.79274 2.10096 4.23294 1.69077 4.96327 1.69077H12.3666C13.097 1.69077 13.5472 2.10096 13.5472 2.77127V9.37429C13.5472 10.0446 13.097 10.4448 12.3666 10.4448H4.96327ZM0.53125 21.4998C0.53125 21.9501 0.88141 22.3202 1.32161 22.3202H15.9984C16.4385 22.3202 16.8087 21.9501 16.8087 21.4998C16.8087 21.0696 16.4385 20.7094 15.9984 20.7094H1.32161C0.891414 20.7094 0.53125 21.0596 0.53125 21.4998ZM18.0992 6.58301H19.2398V4.35199C19.2398 4.04185 18.9797 3.78173 18.6795 3.78173C18.3494 3.78173 18.0992 4.04185 18.0992 4.35199V6.58301ZM21.871 6.58301V4.35199C21.871 4.04185 21.6209 3.78173 21.3007 3.78173C20.9906 3.78173 20.7305 4.04185 20.7305 4.35199V6.58301H21.871ZM14.7678 13.176H15.3281C15.7882 13.176 16.0784 13.4361 16.0784 13.9364V17.2478C16.0784 18.6686 16.9387 19.5289 18.3594 19.5289C19.7701 19.5289 20.6205 18.6686 20.6205 17.2478V12.0755C20.6205 11.0851 21.3607 10.805 21.831 10.4448C22.5513 9.90453 22.9415 9.15419 22.9415 8.26378V6.76309C22.9415 6.52299 22.8015 6.38292 22.5813 6.38292H17.2489C17.0288 6.38292 16.8887 6.52299 16.8887 6.76309V8.26378C16.8887 9.15419 17.279 9.90453 17.9993 10.4448C18.4695 10.805 19.2098 11.0851 19.2098 12.0755V17.2478C19.2098 17.7882 18.8896 18.1182 18.3594 18.1182C17.8091 18.1182 17.489 17.7882 17.489 17.2478V13.9364C17.489 12.5558 16.6687 11.7654 15.3281 11.7654H14.7678V13.176Z" fill="#333333"/>
</g>
</svg>
