<?xml version="1.0" encoding="UTF-8" standalone="no"?>
<!-- Created with Inkscape (http://www.inkscape.org/) -->

<svg
   version="1.1"
   id="svg501"
   xml:space="preserve"
   width="682.66669"
   height="682.66669"
   viewBox="0 0 682.66669 682.66669"
   xmlns="http://www.w3.org/2000/svg"
   xmlns:svg="http://www.w3.org/2000/svg"><defs
     id="defs505"><clipPath
       clipPathUnits="userSpaceOnUse"
       id="clipPath515"><path
         d="M 0,512 H 512 V 0 H 0 Z"
         id="path513" /></clipPath></defs><g
     id="g507"
     transform="matrix(1.3333333,0,0,-1.3333333,0,682.66667)"><g
       id="g509"><g
         id="g511"
         clip-path="url(#clipPath515)"><g
           id="g517"
           transform="translate(280.0483,255.9998)"><path
             d="m 0,0 c 0,-13.281 -10.767,-24.048 -24.048,-24.048 -13.282,0 -24.049,10.767 -24.049,24.048 0,13.282 10.767,24.049 24.049,24.049 C -10.767,24.049 0,13.282 0,0 Z"
             style="fill:none;stroke:#000000;stroke-width:15;stroke-linecap:round;stroke-linejoin:round;stroke-miterlimit:10;stroke-dasharray:none;stroke-opacity:1"
             id="path519" /></g><g
           id="g521"
           transform="translate(71.6289,255.9998)"><path
             d="M 0,0 H 24.048"
             style="fill:none;stroke:#000000;stroke-width:15;stroke-linecap:round;stroke-linejoin:round;stroke-miterlimit:10;stroke-dasharray:none;stroke-opacity:1"
             id="path523" /></g><g
           id="g525"
           transform="translate(416.3228,255.9998)"><path
             d="M 0,0 H 24.048"
             style="fill:none;stroke:#000000;stroke-width:15;stroke-linecap:round;stroke-linejoin:round;stroke-miterlimit:10;stroke-dasharray:none;stroke-opacity:1"
             id="path527" /></g><g
           id="g529"
           transform="translate(256,440.3708)"><path
             d="M 0,0 V -24.048"
             style="fill:none;stroke:#000000;stroke-width:15;stroke-linecap:round;stroke-linejoin:round;stroke-miterlimit:10;stroke-dasharray:none;stroke-opacity:1"
             id="path531" /></g><g
           id="g533"
           transform="translate(256,95.6772)"><path
             d="M 0,0 V -24.048"
             style="fill:none;stroke:#000000;stroke-width:15;stroke-linecap:round;stroke-linejoin:round;stroke-miterlimit:10;stroke-dasharray:none;stroke-opacity:1"
             id="path535" /></g><g
           id="g537"
           transform="translate(163.8145,96.3298)"><path
             d="M 0,0 12.024,20.827"
             style="fill:none;stroke:#000000;stroke-width:15;stroke-linecap:round;stroke-linejoin:round;stroke-miterlimit:10;stroke-dasharray:none;stroke-opacity:1"
             id="path539" /></g><g
           id="g541"
           transform="translate(336.1611,394.8433)"><path
             d="M 0,0 12.024,20.827"
             style="fill:none;stroke:#000000;stroke-width:15;stroke-linecap:round;stroke-linejoin:round;stroke-miterlimit:10;stroke-dasharray:none;stroke-opacity:1"
             id="path543" /></g><g
           id="g545"
           transform="translate(96.3301,348.1853)"><path
             d="M 0,0 20.826,-12.024"
             style="fill:none;stroke:#000000;stroke-width:15;stroke-linecap:round;stroke-linejoin:round;stroke-miterlimit:10;stroke-dasharray:none;stroke-opacity:1"
             id="path547" /></g><g
           id="g549"
           transform="translate(394.8433,175.8386)"><path
             d="M 0,0 20.827,-12.024"
             style="fill:none;stroke:#000000;stroke-width:15;stroke-linecap:round;stroke-linejoin:round;stroke-miterlimit:10;stroke-dasharray:none;stroke-opacity:1"
             id="path551" /></g><g
           id="g553"
           transform="translate(348.1855,96.3298)"><path
             d="M 0,0 -12.024,20.827"
             style="fill:none;stroke:#000000;stroke-width:15;stroke-linecap:round;stroke-linejoin:round;stroke-miterlimit:10;stroke-dasharray:none;stroke-opacity:1"
             id="path555" /></g><g
           id="g557"
           transform="translate(175.8384,394.8433)"><path
             d="M 0,0 -12.024,20.827"
             style="fill:none;stroke:#000000;stroke-width:15;stroke-linecap:round;stroke-linejoin:round;stroke-miterlimit:10;stroke-dasharray:none;stroke-opacity:1"
             id="path559" /></g><g
           id="g561"
           transform="translate(415.6699,348.1853)"><path
             d="M 0,0 -20.827,-12.024"
             style="fill:none;stroke:#000000;stroke-width:15;stroke-linecap:round;stroke-linejoin:round;stroke-miterlimit:10;stroke-dasharray:none;stroke-opacity:1"
             id="path563" /></g><g
           id="g565"
           transform="translate(117.1563,175.8386)"><path
             d="M 0,0 -20.826,-12.024"
             style="fill:none;stroke:#000000;stroke-width:15;stroke-linecap:round;stroke-linejoin:round;stroke-miterlimit:10;stroke-dasharray:none;stroke-opacity:1"
             id="path567" /></g><g
           id="g569"
           transform="translate(256,231.9514)"><path
             d="M 0,0 V -96.194"
             style="fill:none;stroke:#000000;stroke-width:15;stroke-linecap:round;stroke-linejoin:round;stroke-miterlimit:10;stroke-dasharray:none;stroke-opacity:1"
             id="path571" /></g><g
           id="g573"
           transform="translate(344.1772,344.1772)"><path
             d="M 0,0 -68.917,-68.917"
             style="fill:none;stroke:#000000;stroke-width:15;stroke-linecap:round;stroke-linejoin:round;stroke-miterlimit:10;stroke-dasharray:none;stroke-opacity:1"
             id="path575" /></g><g
           id="g577"
           transform="translate(397.0347,92.292)"><path
             d="M 0,0 C -34.242,-29.526 -77.556,-48.693 -124.813,-52.136 -257.78,-61.823 -367.6,48.703 -356.726,181.895 c 3.804,46.594 22.827,89.183 51.926,122.906"
             style="fill:none;stroke:#000000;stroke-width:15;stroke-linecap:round;stroke-linejoin:round;stroke-miterlimit:10;stroke-dasharray:none;stroke-opacity:1"
             id="path579" /></g><g
           id="g581"
           transform="translate(114.8208,419.8525)"><path
             d="m 0,0 c 32.808,28.352 74.116,47.087 119.404,51.516 64.837,6.34 124.493,-15.994 167.905,-55.776 l -13.967,-10.816 c -5.014,-3.883 -3.747,-11.775 2.231,-13.893 l 58.705,-20.801 c 5.5,-1.949 11.173,2.444 10.663,8.257 l -5.449,62.043 c -0.555,6.318 -7.88,9.52 -12.894,5.636 L 312.859,15.527 C 265.717,60.706 200.93,87.592 129.754,84.39 4.31,78.747 -98.704,-22.06 -106.788,-147.37 c -9.65,-149.581 113.134,-273.061 262.485,-264.569 122.251,6.951 222.571,104.363 233.048,226.362 2.424,28.23 0.061,55.552 -6.29,81.305 -1.142,4.627 -6.171,7.16 -10.628,5.472 -4.93,-1.866 -11.051,-4.252 -15.483,-6.211 -3.553,-1.57 -5.373,-5.422 -4.483,-9.203 5.673,-24.078 7.337,-49.7 4.157,-76.157 -5.225,-43.481 -23.708,-82.973 -51.055,-114.592"
             style="fill:none;stroke:#000000;stroke-width:15;stroke-linecap:round;stroke-linejoin:round;stroke-miterlimit:10;stroke-dasharray:none;stroke-opacity:1"
             id="path583" /></g></g></g></g></svg>
