<svg width="15" height="14" viewBox="0 0 15 14" fill="none" xmlns="http://www.w3.org/2000/svg">
<g id="Group">
<path id="Vector" d="M7.49928 1.32239C9.43298 1.32239 9.66128 1.32891 10.4245 1.36313C11.1299 1.3941 11.5132 1.50654 11.7688 1.60106C12.1061 1.72654 12.348 1.87647 12.6019 2.11928C12.8557 2.3621 13.0125 2.59187 13.1437 2.91617C13.2425 3.16061 13.36 3.52728 13.3924 4.20195C13.4265 4.93202 13.435 5.15202 13.435 7.00002C13.435 8.84802 13.4282 9.06802 13.3924 9.7981C13.36 10.4728 13.2425 10.8394 13.1437 11.0839C13.0125 11.4065 12.8557 11.6379 12.6019 11.8808C12.348 12.1236 12.1078 12.2735 11.7688 12.399C11.5132 12.4935 11.1299 12.6059 10.4245 12.6369C9.66128 12.6695 9.43298 12.6777 7.49928 12.6777C5.56558 12.6777 5.33728 12.6711 4.57402 12.6369C3.86869 12.6059 3.48535 12.4935 3.2298 12.399C2.89246 12.2735 2.65054 12.1236 2.39669 11.8808C2.14284 11.6379 1.9861 11.4082 1.85491 11.0839C1.7561 10.8394 1.63854 10.4728 1.60617 9.7981C1.57209 9.06802 1.56357 8.84802 1.56357 7.00002C1.56357 5.15202 1.57039 4.93202 1.60617 4.20195C1.63854 3.52728 1.7561 3.16061 1.85491 2.91617C1.9861 2.5935 2.14284 2.3621 2.39669 2.11928C2.65054 1.87647 2.89076 1.72654 3.2298 1.60106C3.48535 1.50654 3.86869 1.3941 4.57402 1.36313C5.33728 1.33054 5.56728 1.32239 7.49928 1.32239ZM7.49928 0.0740967C5.53321 0.0740967 5.28617 0.0822449 4.51439 0.116467C3.74432 0.150689 3.21787 0.266393 2.75617 0.439134C2.28083 0.616763 1.87706 0.85306 1.47328 1.23765C1.0712 1.62224 0.822464 2.00847 0.638464 2.46476C0.459575 2.90476 0.336906 3.40832 0.301129 4.14654C0.265351 4.88476 0.256836 5.12106 0.256836 7.00165C0.256836 8.88225 0.265351 9.11854 0.301129 9.85676C0.336906 10.5934 0.457871 11.0969 0.638464 11.5385C0.824167 11.9932 1.0712 12.3794 1.47328 12.7657C1.87535 13.1502 2.27913 13.3882 2.75617 13.5642C3.21617 13.7353 3.74261 13.8526 4.51439 13.8868C5.28617 13.9211 5.53321 13.9292 7.49928 13.9292C9.46535 13.9292 9.71238 13.9211 10.4842 13.8868C11.2542 13.8526 11.7807 13.7369 12.2424 13.5642C12.7177 13.3865 13.1215 13.1502 13.5253 12.7657C13.9274 12.3811 14.1761 11.9948 14.3601 11.5385C14.539 11.0985 14.6616 10.595 14.6974 9.85676C14.7332 9.11854 14.7417 8.88225 14.7417 7.00165C14.7417 5.12106 14.7332 4.88476 14.6974 4.14654C14.6616 3.40995 14.5407 2.90639 14.3601 2.46476C14.1744 2.0101 13.9274 1.62387 13.5253 1.23765C13.1232 0.85306 12.7194 0.615134 12.2424 0.439134C11.7824 0.268023 11.2559 0.150689 10.4842 0.116467C9.71238 0.0822449 9.46535 0.0740967 7.49928 0.0740967Z" fill="#E0E0E0"/>
<path id="Vector_2" d="M7.49971 3.44434C5.44675 3.44434 3.78223 5.03648 3.78223 7.00019C3.78223 8.96389 5.44675 10.556 7.49971 10.556C9.55267 10.556 11.2172 8.96389 11.2172 7.00019C11.2172 5.03648 9.55267 3.44434 7.49971 3.44434ZM7.49971 9.30937C6.16741 9.30937 5.08556 8.27619 5.08556 7.00019C5.08556 5.72419 6.16571 4.691 7.49971 4.691C8.83371 4.691 9.91385 5.72419 9.91385 7.00019C9.91385 8.27619 8.83371 9.30937 7.49971 9.30937Z" fill="#E0E0E0"/>
<path id="Vector_3" d="M11.365 4.13341C11.8449 4.13341 12.2339 3.76131 12.2339 3.3023C12.2339 2.84329 11.8449 2.47119 11.365 2.47119C10.8851 2.47119 10.4961 2.84329 10.4961 3.3023C10.4961 3.76131 10.8851 4.13341 11.365 4.13341Z" fill="#E0E0E0"/>
</g>
</svg>
