<svg height="512" viewBox="0 0 48 48" width="512" xmlns="http://www.w3.org/2000/svg"><g id="color"><path d="m19.924 12.128a1.577 1.577 0 0 1 -.578-2.228c1.6-2.485 4.435-7.3 2.274-7.3-2.911 0-4.012 1.009-6.537 1.009h-.161c-2.522-.001-3.622-1.009-6.537-1.009-2.161 0 .67 4.817 2.274 7.3a1.577 1.577 0 0 1 -.578 2.227c-5.446 3.285-9.331 11.384-9.331 17.078 0 7.295 6.381 11.841 14.25 11.841s14.255-4.546 14.255-11.841c0-5.694-3.885-13.793-9.331-17.077z" fill="#c1eafe"/><path d="m19.924 12.128a1.722 1.722 0 0 1 -.683-.758h-8.477a1.728 1.728 0 0 1 -.683.758c-.123.074-.241.163-.362.242h10.567c-.121-.079-.239-.17-.362-.242z" fill="#85c5dd"/><path d="m19.346 9.9c.151-.233.314-.492.481-.761h-9.649c.167.269.33.528.481.761a1.533 1.533 0 0 1 .121.239h8.445a1.533 1.533 0 0 1 .121-.239z" fill="#85c5dd"/><path d="m47.25 18.452c0-1.57-4.2-2.842-9.376-2.842s-9.374 1.273-9.374 2.844v17.576c0 1.57 4.2 2.85 9.37 2.85s9.38-1.28 9.38-2.85z" fill="#f6cc7c"/><ellipse cx="37.874" cy="18.454" fill="#ffe7a8" rx="9.376" ry="2.844"/><g fill="#ffb963"><path d="m37.875 26.879c-5.459 0-9.278-1.329-9.376-2.542v1c1.41 1.341 5.491 2.054 9.376 2.054s7.965-.713 9.375-2.054v-1c-.099 1.213-3.917 2.542-9.375 2.542z"/><path d="m37.875 23.962c-5.459 0-9.278-1.33-9.376-2.543v1c1.41 1.341 5.491 2.054 9.376 2.054s7.965-.713 9.375-2.054v-1c-.099 1.213-3.917 2.543-9.375 2.543z"/><path d="m37.875 29.8c-5.459 0-9.278-1.329-9.376-2.542v1c1.41 1.341 5.491 2.054 9.376 2.054s7.965-.713 9.375-2.054v-1c-.099 1.21-3.917 2.542-9.375 2.542z"/><path d="m37.875 32.715c-5.459 0-9.278-1.329-9.376-2.542v1c1.41 1.341 5.491 2.054 9.376 2.054s7.965-.713 9.375-2.054v-1c-.099 1.213-3.917 2.542-9.375 2.542z"/><path d="m37.875 35.633c-5.459 0-9.278-1.329-9.376-2.542v1c1.41 1.34 5.491 2.054 9.376 2.054s7.965-.713 9.375-2.054v-1c-.099 1.209-3.917 2.542-9.375 2.542z"/></g><path d="m28.5 33.275v-7.244a9.679 9.679 0 0 0 -11.095 14.857c5.205-.643 9.443-3.376 11.095-7.613z" fill="#a9e3f4"/><path d="m28.5 26.031v10c0 1.177 2.36 2.191 5.72 2.625a9.663 9.663 0 0 0 -5.72-12.625z" fill="#e4a95e"/><circle cx="26.596" cy="36.305" fill="#fcac44" r="9.084"/><path d="m19.924 12.128a1.577 1.577 0 0 1 -.578-2.228c1.6-2.485 4.435-7.3 2.274-7.3-2.911 0-4.012 1.009-6.537 1.009h-.161c-2.522-.001-3.622-1.009-6.537-1.009-2.161 0 .67 4.817 2.274 7.3a1.577 1.577 0 0 1 -.578 2.227c-5.446 3.285-9.331 11.384-9.331 17.078 0 7.295 6.381 11.841 14.25 11.841s14.255-4.546 14.255-11.841c0-5.694-3.885-13.793-9.331-17.077z" fill="#c1eafe"/><path d="m19.924 12.128a1.722 1.722 0 0 1 -.683-.758h-8.477a1.728 1.728 0 0 1 -.683.758c-.123.074-.241.163-.362.242h10.567c-.121-.079-.239-.17-.362-.242z" fill="#85c5dd"/><path d="m19.346 9.9c.151-.233.314-.492.481-.761h-9.649c.167.269.33.528.481.761a1.533 1.533 0 0 1 .121.239h8.445a1.533 1.533 0 0 1 .121-.239z" fill="#85c5dd"/><path d="m47.25 18.452c0-1.57-4.2-2.842-9.376-2.842s-9.374 1.273-9.374 2.844v17.576c0 1.57 4.2 2.85 9.37 2.85s9.38-1.28 9.38-2.85z" fill="#f6cc7c"/><ellipse cx="37.874" cy="18.454" fill="#ffe7a8" rx="9.376" ry="2.844"/><path d="m37.875 26.879c-5.459 0-9.278-1.329-9.376-2.542v1c1.41 1.341 5.491 2.054 9.376 2.054s7.965-.713 9.375-2.054v-1c-.099 1.213-3.917 2.542-9.375 2.542z" fill="#ffb963"/><path d="m37.875 23.962c-5.459 0-9.278-1.33-9.376-2.543v1c1.41 1.341 5.491 2.054 9.376 2.054s7.965-.713 9.375-2.054v-1c-.099 1.213-3.917 2.543-9.375 2.543z" fill="#ffb963"/><path d="m37.875 29.8c-5.459 0-9.278-1.329-9.376-2.542v1c1.41 1.341 5.491 2.054 9.376 2.054s7.965-.713 9.375-2.054v-1c-.099 1.21-3.917 2.542-9.375 2.542z" fill="#ffb963"/><path d="m37.875 32.715c-5.459 0-9.278-1.329-9.376-2.542v1c1.41 1.341 5.491 2.054 9.376 2.054s7.965-.713 9.375-2.054v-1c-.099 1.213-3.917 2.542-9.375 2.542z" fill="#ffb963"/><path d="m37.875 35.633c-5.459 0-9.278-1.329-9.376-2.542v1c1.41 1.34 5.491 2.054 9.376 2.054s7.965-.713 9.375-2.054v-1c-.099 1.209-3.917 2.542-9.375 2.542z" fill="#ffb963"/><path d="m28.5 33.275v-7.244a9.679 9.679 0 0 0 -11.095 14.857c5.205-.643 9.443-3.376 11.095-7.613z" fill="#a9e3f4"/><path d="m28.5 26.031v10c0 1.177 2.36 2.191 5.72 2.625a9.663 9.663 0 0 0 -5.72-12.625z" fill="#e4a95e"/><circle cx="26.596" cy="36.305" fill="#fcac44" r="9.084"/></g><g id="outline" fill="#1a1a1a"><path d="m26.578 26.456a9.85 9.85 0 0 0 -4.923 1.316.75.75 0 1 0 .751 1.3 8.361 8.361 0 1 1 -1.716 1.315.75.75 0 1 0 -1.058-1.063 9.847 9.847 0 1 0 6.946-2.867z"/><path d="m27.393 39.268h-1.883a1.108 1.108 0 0 1 -1.11-1.107.75.75 0 0 0 -1.5 0 2.61 2.61 0 0 0 2.607 2.607h.193v1.438a.75.75 0 0 0 1.5 0v-1.438h.191a2.607 2.607 0 0 0 0-5.214h-1.881a1.108 1.108 0 0 1 0-2.215h1.883a1.108 1.108 0 0 1 1.107 1.107.75.75 0 0 0 1.5 0 2.61 2.61 0 0 0 -2.607-2.607h-.193v-1.439a.75.75 0 0 0 -1.5 0v1.439h-.19a2.608 2.608 0 0 0 0 5.215h1.883a1.107 1.107 0 0 1 0 2.214z"/><path d="m44.417 15.637a.75.75 0 0 0 -.4 1.445c2.029.564 2.486 1.2 2.486 1.372 0 .626-2.935 2.094-8.625 2.094s-8.626-1.468-8.626-2.094 2.934-2.094 8.626-2.094a27.333 27.333 0 0 1 4.023.283.751.751 0 0 0 .221-1.485 29.106 29.106 0 0 0 -4.244-.3c-4.877 0-10.126 1.125-10.126 3.594v5.835c0 2.469 5.249 3.594 10.126 3.594 3.278 0 6.718-.511 8.625-1.595v.918c0 .626-2.935 2.094-8.625 2.094-.653 0-1.289-.02-1.9-.06a.758.758 0 0 0 -.8.7.749.749 0 0 0 .7.8c.645.042 1.314.064 2 .064 3.278 0 6.718-.511 8.625-1.6v.918c0 .626-2.935 2.1-8.625 2.1 0 0-.313.006-.452 0a.779.779 0 0 0 -.772.727.752.752 0 0 0 .728.773h.5c3.278 0 6.718-.512 8.625-1.6v.918c0 .626-2.935 2.094-8.625 2.094a.75.75 0 0 0 0 1.5c3.278 0 6.718-.512 8.625-1.595v.991c0 .626-2.935 2.094-8.625 2.094h-.269a.794.794 0 0 0 -.758.742.751.751 0 0 0 .742.758h.285c4.869.003 10.118-1.122 10.118-3.591v-17.577c0-.83-.622-1.992-3.583-2.817zm-6.542 6.411c3.278 0 6.718-.511 8.625-1.595v.918c0 .626-2.935 2.1-8.625 2.1s-8.626-1.469-8.626-2.1v-.918c1.907 1.084 5.351 1.595 8.626 1.595zm0 4.335c-5.692 0-8.626-1.468-8.626-2.094v-.918c1.907 1.084 5.346 1.6 8.626 1.6s6.718-.511 8.625-1.6v.918c0 .626-2.935 2.094-8.625 2.094z"/><path d="m15.8 40.28c-.264.01-.53.016-.8.016-7.95 0-13.5-4.561-13.5-11.091 0-5.325 3.6-13.2 8.969-16.435.073-.045.134-.1.2-.15h6.131a.75.75 0 0 0 0-1.5h-5.185a2.25 2.25 0 0 0 -.326-1.626c-2.535-3.927-3.028-5.694-2.936-6.152a.053.053 0 0 0 .032.007 11.7 11.7 0 0 1 3.323.506 11.594 11.594 0 0 0 3.214.5 15.118 15.118 0 0 0 3.643-.538 13.576 13.576 0 0 1 2.883-.468c-.027.565-.587 2.234-2.524 5.54h-5.724a.75.75 0 0 0 0 1.5h5.062a2.234 2.234 0 0 0 .048.837 2.409 2.409 0 0 0 1.133 1.486 18.354 18.354 0 0 1 6.348 7.069.75.75 0 1 0 1.317-.717 19.853 19.853 0 0 0 -6.9-7.643.927.927 0 0 1 -.443-.563.76.76 0 0 1 .091-.591c3.764-6.262 3.156-7.337 2.9-7.8a1.253 1.253 0 0 0 -1.132-.625 14.31 14.31 0 0 0 -3.4.511 13.742 13.742 0 0 1 -3.3.5 10.2 10.2 0 0 1 -2.83-.453 13.307 13.307 0 0 0 -3.707-.556 1.425 1.425 0 0 0 -1.335.725c-.252.463-.922 1.693 2.979 7.735a.759.759 0 0 1 .109.6.932.932 0 0 1 -.444.581c-5.796 3.497-9.696 11.986-9.696 17.72 0 7.295 6.31 12.595 15 12.595q.432 0 .858-.018a.75.75 0 1 0 -.059-1.5z"/></g></svg>