<svg width="101" height="42" viewBox="0 0 101 42" fill="none" xmlns="http://www.w3.org/2000/svg">
<g clip-path="url(#clip0_1480_972)">
<path d="M54.5087 31.0653V15.1806L47.9778 27.2355H45.9177L39.3868 15.1806V31.0653H35.8506V8.77979H39.5992L46.9371 22.3708L54.2857 8.77979H58.0343V31.0653H54.498H54.5087Z" fill="#C09F64"/>
<path d="M63.0352 31.0653V8.77979H70.9147C73.3146 8.77979 75.3004 9.27051 76.9039 10.2733C78.4968 11.2654 79.6968 12.6096 80.5145 14.2952C81.3322 15.9807 81.7357 17.8476 81.7357 19.8959C81.7357 22.1575 81.2897 24.1204 80.4083 25.7953C79.5269 27.4702 78.2632 28.7717 76.6385 29.6891C75.0137 30.6066 73.1129 31.0759 70.9253 31.0759H63.0458L63.0352 31.0653ZM78.157 19.8852C78.157 18.317 77.8703 16.9302 77.2969 15.746C76.7234 14.5512 75.9057 13.6124 74.8226 12.919C73.75 12.2256 72.4438 11.8842 70.904 11.8842H66.5608V27.9609H70.904C72.4651 27.9609 73.7819 27.6088 74.8544 26.8941C75.927 26.1793 76.7447 25.2192 77.3075 24.0031C77.8703 22.7869 78.1464 21.4214 78.1464 19.8852H78.157Z" fill="#C09F64"/>
<path d="M98.5051 14.0176C98.3139 13.7829 98.0166 13.5375 97.613 13.2815C97.2095 13.0254 96.7423 12.7801 96.2113 12.5561C95.6803 12.332 95.0963 12.1507 94.4591 11.9906C93.822 11.8306 93.1742 11.756 92.5052 11.756C91.0503 11.756 89.9672 12.0227 89.2557 12.5667C88.5442 13.1108 88.1937 13.8576 88.1937 14.8177C88.1937 15.5324 88.3955 16.0872 88.7884 16.5032C89.1813 16.9193 89.7972 17.2607 90.6149 17.5167C91.4432 17.7727 92.4521 18.0501 93.6627 18.3488C95.1812 18.7008 96.4874 19.1276 97.5918 19.629C98.6856 20.1304 99.5245 20.7811 100.119 21.5919C100.714 22.4026 101.011 23.4908 101.011 24.8456C101.011 25.9444 100.799 26.9045 100.374 27.7153C99.9493 28.5261 99.3546 29.1875 98.6113 29.6996C97.8573 30.2116 96.9971 30.5957 96.0201 30.841C95.0432 31.0864 93.9919 31.2144 92.8662 31.2144C91.7406 31.2144 90.668 31.0971 89.5636 30.8517C88.4698 30.6063 87.4291 30.265 86.4416 29.8169C85.454 29.3689 84.5301 28.8141 83.6699 28.174L85.2947 25.155C85.5389 25.4217 85.9318 25.7204 86.4522 26.0511C86.9725 26.3818 87.5672 26.6805 88.2468 26.9792C88.9265 27.2673 89.6592 27.5233 90.4663 27.7153C91.2627 27.918 92.091 28.014 92.9193 28.014C94.3104 28.014 95.383 27.7687 96.1263 27.2886C96.8697 26.8085 97.2307 26.0938 97.2307 25.155C97.2307 24.4296 96.9865 23.8322 96.498 23.3841C96.0095 22.936 95.3087 22.552 94.406 22.2426C93.5034 21.9332 92.4096 21.6132 91.1459 21.3038C89.6911 20.9305 88.4698 20.5037 87.4929 20.0237C86.5159 19.5436 85.7832 18.9355 85.3053 18.2101C84.8274 17.4847 84.5832 16.5352 84.5832 15.3617C84.5832 13.9002 84.9336 12.6734 85.6239 11.6599C86.3247 10.6465 87.2805 9.88905 88.5123 9.37698C89.7441 8.86492 91.1034 8.60889 92.6114 8.60889C93.6096 8.60889 94.5653 8.71557 95.4679 8.9396C96.3706 9.16362 97.2201 9.46233 97.9953 9.83571C98.7812 10.2091 99.4714 10.6465 100.077 11.1265L98.5157 14.0176H98.5051Z" fill="#C09F64"/>
<path d="M35.8505 41.9463V34.6494H40.6716V35.6629H36.9973V37.8392H40.0769V38.7886H36.9973V41.9463H35.8398H35.8505Z" fill="#C09F64"/>
<path d="M44.6541 41.9998C44.1444 41.9998 43.6772 41.8931 43.2524 41.6904C42.8276 41.4877 42.4666 41.2104 42.148 40.8477C41.84 40.4956 41.5958 40.1009 41.4365 39.6528C41.2772 39.2048 41.1816 38.7567 41.1816 38.2873C41.1816 37.8179 41.2666 37.3379 41.4471 36.9005C41.6277 36.4631 41.8719 36.0684 42.1905 35.7163C42.5091 35.375 42.8807 35.0976 43.2949 34.8949C43.709 34.6922 44.1763 34.5962 44.6754 34.5962C45.1745 34.5962 45.6736 34.7029 46.0878 34.9162C46.5019 35.1296 46.8736 35.4176 47.1815 35.7697C47.4895 36.1217 47.7231 36.5271 47.8824 36.9645C48.0417 37.4019 48.1267 37.8499 48.1267 38.3193C48.1267 38.7887 48.0417 39.2581 47.8718 39.7062C47.7019 40.1436 47.4576 40.5383 47.1391 40.8903C46.8205 41.2317 46.4594 41.5091 46.0347 41.7118C45.6205 41.9145 45.1533 42.0105 44.6435 42.0105L44.6541 41.9998ZM42.3604 38.298C42.3604 38.65 42.4135 38.9807 42.5197 39.3008C42.6259 39.6208 42.7745 39.8982 42.9763 40.1542C43.1781 40.3996 43.4223 40.6023 43.6984 40.741C43.9745 40.8797 44.3037 40.9543 44.6648 40.9543C45.0258 40.9543 45.3656 40.8797 45.6417 40.7303C45.9178 40.581 46.1727 40.3783 46.3639 40.1222C46.5656 39.8662 46.7143 39.5782 46.8099 39.2688C46.9054 38.9594 46.9585 38.6287 46.9585 38.298C46.9585 37.946 46.9054 37.6152 46.7992 37.3059C46.693 36.9965 46.5338 36.7085 46.332 36.4631C46.1302 36.2177 45.886 36.015 45.5993 35.8764C45.3125 35.727 45.0046 35.663 44.6541 35.663C44.2825 35.663 43.9533 35.7377 43.6666 35.887C43.3798 36.0364 43.1462 36.2391 42.9444 36.4951C42.7427 36.7511 42.594 37.0285 42.4984 37.3485C42.3922 37.6686 42.3498 37.9886 42.3498 38.3193L42.3604 38.298Z" fill="#C09F64"/>
<path d="M49.3369 41.9463V34.6494H52.5015C52.8307 34.6494 53.128 34.7134 53.4041 34.8521C53.6802 34.9908 53.9138 35.1721 54.1156 35.3962C54.3174 35.6202 54.4766 35.8762 54.5828 36.1643C54.6997 36.4523 54.7527 36.7297 54.7527 37.0177C54.7527 37.3484 54.6997 37.6578 54.5828 37.9458C54.466 38.2339 54.3067 38.4899 54.0837 38.7033C53.8713 38.9166 53.6165 39.066 53.3298 39.162L55.0395 41.9357H53.7545L52.1829 39.3967H50.505V41.9357H49.3475L49.3369 41.9463ZM50.4944 38.3939H52.4908C52.7032 38.3939 52.8944 38.3299 53.0537 38.2019C53.213 38.0738 53.351 37.9138 53.4466 37.7005C53.5422 37.4978 53.5846 37.2737 53.5846 37.0177C53.5846 36.7617 53.5315 36.5377 53.4147 36.335C53.2979 36.1323 53.1599 35.9616 52.9899 35.8442C52.82 35.7269 52.6289 35.6629 52.4271 35.6629H50.4944V38.3832V38.3939Z" fill="#C09F64"/>
<path d="M62.1969 41.9463V36.751L60.0624 40.6982H59.3828L57.2483 36.751V41.9463H56.0908V34.6494H57.3227L59.7226 39.098L62.1226 34.6494H63.3544V41.9463H62.1969Z" fill="#C09F64"/>
<path d="M67.0814 34.6602H68.1646L70.9893 41.9571H69.7787L69.0673 39.9728H66.1682L65.4567 41.9571H64.2461L67.0814 34.6602ZM68.7699 39.1194L67.623 35.9296L66.4761 39.1194H68.7699Z" fill="#C09F64"/>
<path d="M76.5322 35.6736H74.1217V41.9464H72.9642V35.6736H70.543V34.6602H76.5322V35.6736Z" fill="#C09F64"/>
<path d="M77.5 41.9463V34.6494H78.6575V41.9463H77.5Z" fill="#C09F64"/>
<path d="M83.287 41.9998C82.7772 41.9998 82.31 41.8931 81.8852 41.6904C81.4604 41.4877 81.0994 41.2104 80.7808 40.8477C80.4728 40.4956 80.2286 40.1009 80.0693 39.6528C79.91 39.2048 79.8145 38.7567 79.8145 38.2873C79.8145 37.8179 79.8994 37.3379 80.0799 36.9005C80.2605 36.4631 80.5047 36.0684 80.8233 35.7163C81.1419 35.375 81.5135 35.0976 81.9277 34.8949C82.3418 34.6922 82.8091 34.5962 83.3082 34.5962C83.8073 34.5962 84.3064 34.7029 84.7206 34.9162C85.1347 35.1296 85.5064 35.4176 85.8143 35.7697C86.1223 36.1217 86.3559 36.5271 86.5152 36.9645C86.6745 37.4019 86.7595 37.8499 86.7595 38.3193C86.7595 38.7887 86.6745 39.2581 86.5046 39.7062C86.3347 40.1436 86.0904 40.5383 85.7719 40.8903C85.4533 41.2317 85.0922 41.5091 84.6675 41.7118C84.2533 41.9145 83.7861 42.0105 83.2763 42.0105L83.287 41.9998ZM80.9932 38.298C80.9932 38.65 81.0463 38.9807 81.1525 39.3008C81.2587 39.6208 81.4073 39.8982 81.6091 40.1542C81.8109 40.3996 82.0551 40.6023 82.3312 40.741C82.6073 40.8797 82.9365 40.9543 83.2976 40.9543C83.6586 40.9543 83.9984 40.8797 84.2745 40.7303C84.5506 40.581 84.8055 40.3783 84.9967 40.1222C85.1984 39.8662 85.3471 39.5782 85.4427 39.2688C85.5382 38.9594 85.5913 38.6287 85.5913 38.298C85.5913 37.946 85.5382 37.6152 85.432 37.3059C85.3259 36.9965 85.1666 36.7085 84.9648 36.4631C84.763 36.2177 84.5188 36.015 84.2321 35.8764C83.9453 35.727 83.6374 35.663 83.287 35.663C82.9153 35.663 82.5861 35.7377 82.2994 35.887C82.0126 36.0364 81.779 36.2391 81.5772 36.4951C81.3755 36.7511 81.2268 37.0285 81.1312 37.3485C81.025 37.6686 80.9826 37.9886 80.9826 38.3193L80.9932 38.298Z" fill="#C09F64"/>
<path d="M89.1272 36.7937V41.9463H87.9697V34.6494H88.9148L93.0245 39.9194V34.6601H94.1714V41.9463H93.1838L89.1379 36.7937H89.1272Z" fill="#C09F64"/>
<path d="M100.108 36.3777C100.044 36.3031 99.9486 36.2177 99.8212 36.1324C99.6937 36.047 99.5345 35.9724 99.3645 35.8977C99.1946 35.823 99.0035 35.759 98.7911 35.7163C98.5787 35.663 98.3663 35.6417 98.1539 35.6417C97.6761 35.6417 97.3256 35.727 97.092 35.9084C96.8584 36.0897 96.7416 36.3351 96.7416 36.6444C96.7416 36.8791 96.8053 37.0605 96.9327 37.1992C97.0602 37.3379 97.2619 37.4446 97.5274 37.5299C97.7929 37.6152 98.1327 37.7006 98.5256 37.7966C99.0247 37.9139 99.4495 38.0526 99.8106 38.2127C100.172 38.3727 100.448 38.586 100.639 38.8527C100.83 39.1194 100.926 39.4715 100.926 39.9195C100.926 40.2822 100.851 40.5916 100.713 40.8583C100.575 41.125 100.384 41.3384 100.14 41.5091C99.8955 41.6798 99.6088 41.7971 99.2902 41.8824C98.9716 41.9678 98.6212 41.9998 98.2601 41.9998C97.8991 41.9998 97.538 41.9571 97.177 41.8824C96.8159 41.8078 96.4761 41.6904 96.1575 41.5411C95.8389 41.3917 95.531 41.2104 95.2549 40.997L95.7858 40.0155C95.8708 40.1009 95.9982 40.1969 96.1681 40.3036C96.3381 40.4103 96.5292 40.5063 96.7522 40.6023C96.9752 40.6983 97.2195 40.7836 97.4743 40.8477C97.7398 40.9117 98.0053 40.9437 98.2814 40.9437C98.738 40.9437 99.0884 40.869 99.3327 40.709C99.5769 40.5489 99.6937 40.3142 99.6937 40.0155C99.6937 39.7808 99.6088 39.5888 99.4495 39.4395C99.2902 39.2901 99.0566 39.1728 98.7699 39.0661C98.4725 38.9594 98.1221 38.8634 97.6973 38.7567C97.2195 38.6394 96.8159 38.49 96.4973 38.3407C96.1788 38.1806 95.9345 37.9886 95.7858 37.7433C95.6266 37.5086 95.5522 37.1992 95.5522 36.8151C95.5522 36.3351 95.669 35.9297 95.892 35.599C96.1257 35.2683 96.4336 35.0229 96.8372 34.8522C97.2407 34.6815 97.6867 34.5962 98.1752 34.5962C98.5044 34.5962 98.8123 34.6282 99.1097 34.7029C99.407 34.7775 99.6831 34.8736 99.938 34.9909C100.193 35.1189 100.416 35.2576 100.618 35.407L100.108 36.3564V36.3777Z" fill="#C09F64"/>
<path d="M26.3361 30.34C26.0069 31.8335 24.4883 35.5567 21.122 38.8637C20.3043 38.8851 19.5503 38.8104 18.9132 38.7037L19.4441 38.2983C21.2069 36.8155 23.8193 34.0631 24.7113 29.9986C26.0493 23.8752 22.6299 18.5092 20.7609 15.5755C19.6459 13.8259 18.3291 12.2044 16.8318 10.7322C15.2814 12.2364 13.8796 13.8899 12.669 15.6715C12.1487 16.4289 11.1611 18.0718 10.7151 19.0106L9.21777 18.2851C9.66378 17.325 10.7363 15.5541 11.2992 14.722C12.7221 12.6311 14.3894 10.7002 16.269 8.97195L16.8318 8.44922L17.3946 8.97195C19.2211 10.6682 20.8246 12.5884 22.1521 14.6687C24.0954 17.7197 27.8334 23.5765 26.3361 30.34Z" fill="#C09F64"/>
<path d="M32.3995 26.3392C32.3783 31.6626 31.2845 35.6097 29.15 38.106C27.7695 39.7276 26.1235 40.6344 26.0598 40.6664C24.2014 41.6798 22.3006 41.9999 20.6652 41.9999C18.7219 41.9999 17.1608 41.5625 16.5024 41.3491C11.968 39.8449 8.20878 35.3857 7.17871 30.2437C6.65836 27.6727 6.99818 24.3443 7.86896 21.72C8.29373 21.912 8.81408 22.1574 9.3769 22.4774C8.59107 24.8244 8.34683 27.63 8.80346 29.913C9.71671 34.4149 13.0936 38.4688 17.0228 39.7596C18.0741 40.1116 21.8015 41.1038 25.2633 39.2049C25.274 39.2049 26.7182 38.3941 27.8969 37.0179C31.8685 32.3666 30.6898 22.4347 30.2013 19.341C29.9358 19.3943 29.6597 19.4583 29.3942 19.5117C28.9907 19.6077 28.704 19.6824 28.5978 19.7037C28.1943 19.8104 27.5359 19.9811 26.3784 20.2584C26.1766 19.7677 25.9748 19.2983 25.7624 18.8503C26.4952 18.5836 27.3022 18.3169 28.173 18.0928C29.0863 17.8475 29.9464 17.6768 30.7429 17.5381L31.55 17.3994L31.6986 18.2102C31.8261 18.8609 32.4314 22.36 32.4101 26.3392H32.3995Z" fill="#C09F64"/>
<path d="M22.8316 21.72C21.8653 22.6267 20.7609 23.8642 19.752 25.4538C17.7238 28.6648 17.5008 29.5929 16.8317 31.7052C16.5981 30.9585 16.2477 29.9557 15.7273 28.8035C15.3344 27.9394 14.6973 26.5099 13.7628 25.2297C11.5646 22.1893 8.45313 20.9092 7.15758 20.3971C5.66026 19.7997 4.0886 19.4263 2.46385 19.277C2.23023 20.4078 1.8267 22.8614 1.94351 25.7311C2.14527 30.6171 3.71693 34.4682 6.61599 37.1459C7.6673 38.1167 8.78233 38.8635 8.78233 38.8635C9.47258 39.2902 10.1204 39.5889 10.6938 39.8129C11.331 40.5063 12.0212 41.1251 12.7539 41.6692C10.6726 41.3064 7.93278 40.453 5.49035 38.3834C0.393093 34.0415 -1.29537 26.1258 1.00901 18.1888L1.17892 17.5381L1.84793 17.5701C3.89746 17.6661 5.88326 18.1035 7.76288 18.8503C9.39824 19.501 12.7858 20.8452 15.122 24.2909C15.9397 25.4964 16.4919 26.7233 16.8636 27.8967C17.0335 27.3527 17.2353 26.7979 17.4795 26.2432C17.4795 26.2432 17.8618 25.3684 18.3184 24.6003C19.4122 22.7547 21.7272 20.8345 22.2476 20.4185C22.4493 20.8452 22.6511 21.2826 22.821 21.7306L22.8316 21.72Z" fill="#C09F64"/>
<path d="M16.9598 6.63549C16.8749 6.63549 16.7899 6.63549 16.705 6.63549C14.8891 6.4968 13.5298 4.8966 13.6679 3.07237C13.7422 2.18692 14.1457 1.38682 14.8147 0.810749C15.4838 0.224008 16.3439 -0.0640283 17.2253 -2.01864e-05C18.1067 0.074656 18.9032 0.480041 19.4766 1.15213C20.05 1.82421 20.3261 2.68832 20.2624 3.5631C20.1244 5.30199 18.6802 6.62482 16.9705 6.62482L16.9598 6.63549ZM16.9598 1.67486C16.5669 1.67486 16.1952 1.81354 15.8979 2.06958C15.5687 2.35761 15.3669 2.75233 15.3245 3.18972C15.2926 3.62711 15.4307 4.05383 15.7174 4.38454C16.0041 4.71525 16.397 4.91794 16.8324 4.96061C17.7457 5.03529 18.5209 4.35253 18.5952 3.44575C18.6695 2.53897 17.9899 1.74954 17.0873 1.67486C17.0448 1.67486 17.0023 1.67486 16.9598 1.67486Z" fill="#C09F64"/>
</g>
<defs>
<clipPath id="clip0_1480_972">
<rect width="101" height="42" fill="white"/>
</clipPath>
</defs>
</svg>
