<svg width="21" height="21" viewBox="0 0 21 21" fill="none" xmlns="http://www.w3.org/2000/svg">
<path id="Vector" d="M0 8.49366C0 13.1768 3.8475 16.9873 8.57627 16.9873C10.4463 16.9873 12.1551 16.3913 13.5629 15.3908L18.8506 20.638C19.0978 20.8829 19.4202 21 19.7641 21C20.4949 21 21 20.4571 21 19.744C21 19.4034 20.871 19.0947 20.6454 18.8713L15.39 13.6346C16.4969 12.2083 17.1525 10.4308 17.1525 8.49366C17.1525 3.81043 13.305 0 8.57627 0C3.8475 0 0 3.81043 0 8.49366ZM1.83777 8.49366C1.83777 4.81094 4.85773 1.82007 8.57627 1.82007C12.2948 1.82007 15.3147 4.81094 15.3147 8.49366C15.3147 12.1764 12.2948 15.1672 8.57627 15.1672C4.85773 15.1672 1.83777 12.1764 1.83777 8.49366Z" fill="#4F4F4F"/>
</svg>
