<svg width="25" height="29" viewBox="0 0 25 29" fill="none" xmlns="http://www.w3.org/2000/svg">
<path id="Vector" d="M2.5729 8.51689L15.2444 21.0793C14.7942 21.3987 14.3225 21.7181 13.8293 22.0162L15.8233 24.6564C16.1664 25.1035 16.0806 25.7423 15.6304 26.083C15.566 26.1256 15.5017 26.1681 15.4374 26.1894L15.3302 26.232L15.1801 26.2746H15.1372H14.9871H13.4005V28.0888C13.4005 28.592 12.9925 29 12.4893 29C11.986 29 11.578 28.592 11.578 28.0888V26.2746H9.99142C9.43396 26.2746 8.96226 25.8275 8.96226 25.2526C8.96226 25.21 8.96226 25.1674 8.96226 25.1248V24.9971L9.04803 24.8267V24.7841L9.15523 24.6351L11.1063 22.0374C5.38165 18.9288 2.44425 14.9046 2.44425 9.94347C2.44425 9.43245 2.48714 8.94273 2.55146 8.45301L2.5729 8.51689ZM1.28645 2.10793L25 25.6571L23.7135 26.9347L0 3.40675L1.28645 2.12922V2.10793ZM12.5 0.0212886C17.8816 0.0212886 22.5343 4.79075 22.5343 9.98605C22.5343 12.6263 21.4623 15.1175 19.3611 17.4809L5.06003 3.279C6.96827 1.19236 9.66981 0 12.5 0V0.0212886ZM17.9674 6.36637C16.9597 6.36637 16.1449 7.17548 16.1449 8.17621C16.1449 9.17695 16.9597 9.98605 17.9674 9.98605C18.9751 9.98605 19.7899 9.17695 19.7899 8.17621C19.7899 7.17548 18.9751 6.36637 17.9674 6.36637Z" fill="#333333"/>
</svg>
