<svg width="20" height="21" viewBox="0 0 20 21" fill="none" xmlns="http://www.w3.org/2000/svg">
<g id="Vector">
<path id="Vector_2" d="M9.96094 20.8653C15.4102 20.8653 19.9219 16.3438 19.9219 10.9043C19.9219 5.45508 15.4004 0.943359 9.95117 0.943359C4.51172 0.943359 0 5.45508 0 10.9043C0 16.3438 4.52148 20.8653 9.96094 20.8653Z" fill="white"/>
<path id="Vector_3" d="M4 10.9434C4 11.2997 4.29818 11.5906 4.64727 11.5906H9.35272V16.296C9.35272 16.6452 9.64363 16.9434 9.99999 16.9434C10.3564 16.9434 10.6545 16.6452 10.6545 16.296V11.5906H15.3527C15.7018 11.5906 16 11.2997 16 10.9434C16 10.587 15.7018 10.2888 15.3527 10.2888H10.6545V5.59063C10.6545 5.24154 10.3564 4.94336 9.99999 4.94336C9.64363 4.94336 9.35272 5.24154 9.35272 5.59063V10.2888H4.64727C4.29818 10.2888 4 10.587 4 10.9434Z" fill="#4F4F4F"/>
</g>
</svg>
