<svg width="32" height="21" viewBox="0 0 32 21" fill="none" xmlns="http://www.w3.org/2000/svg">
<g id="Group">
<path id="Vector" d="M0.636719 11.1949C0.636719 16.5374 5.65901 20.099 13.2525 20.099C20.8559 20.099 25.8783 16.5374 25.8783 11.1949C25.8783 8.95395 20.6859 7.13312 13.2525 7.13312C5.82909 7.13312 0.636719 8.95395 0.636719 11.1949ZM2.24746 11.1949C2.24746 10.1145 7.48985 8.64382 13.2525 8.64382C19.0152 8.64382 24.2675 10.1145 24.2675 11.1949C24.2675 12.2355 19.3453 13.7162 13.2525 13.7162C7.1597 13.7162 2.24746 12.2355 2.24746 11.1949ZM23.7673 10.1045L30.3703 6.06264C33.1316 4.38186 30.5705 0.330015 27.2089 2.74112L19.4953 8.29365L23.7673 10.1045ZM7.43983 13.8562L18.2148 13.8963C18.2248 11.8153 16.5139 10.4547 14.5431 10.4547C13.2425 10.4547 12.102 11.0349 11.4316 11.9353C11.0815 11.8153 10.7613 11.7653 10.3712 11.7653C8.9105 11.7653 7.69995 12.6756 7.43983 13.8562Z" fill="#333333"/>
</g>
</svg>
