<svg width="23" height="21" viewBox="0 0 23 21" fill="none" xmlns="http://www.w3.org/2000/svg">
<g id="Vector">
<path id="Vector_2" d="M4.91109 20.5469C5.31149 20.8594 5.8193 20.752 6.42477 20.3125L11.5908 16.5137L16.7666 20.3125C17.372 20.752 17.8701 20.8594 18.2802 20.5469C18.6806 20.2441 18.7685 19.7461 18.5244 19.0332L16.4834 12.959L21.6982 9.20898C22.3037 8.7793 22.5478 8.33008 22.3916 7.8418C22.2353 7.37305 21.7763 7.13867 21.0244 7.14844L14.6279 7.1875L12.6845 1.08398C12.4502 0.361328 12.0986 0 11.5908 0C11.0927 0 10.7412 0.361328 10.5068 1.08398L8.56344 7.1875L2.16695 7.14844C1.415 7.13867 0.956017 7.37305 0.799767 7.8418C0.633751 8.33008 0.887657 8.7793 1.49313 9.20898L6.70797 12.959L4.66695 19.0332C4.42281 19.7461 4.5107 20.2441 4.91109 20.5469Z" fill="url(#paint0_linear_1461_1006)"/>
</g>
<defs>
<linearGradient id="paint0_linear_1461_1006" x1="3" y1="10" x2="20" y2="10" gradientUnits="userSpaceOnUse">
<stop stop-color="#FAC917"/>
<stop offset="0.814982" stop-color="#FAC917"/>
<stop offset="0.815082" stop-color="#FFEDAC"/>
</linearGradient>
</defs>
</svg>
