<svg width="16" height="25" viewBox="0 0 16 25" fill="none" xmlns="http://www.w3.org/2000/svg">
<g id="Group">
<path id="Vector" d="M1.09333 1.64076H14.1293C14.5694 1.64076 14.9297 1.27059 14.9297 0.830395C14.9297 0.390194 14.5694 0.0300293 14.1293 0.0300293H1.09333C0.653133 0.0300293 0.292969 0.390194 0.292969 0.830395C0.292969 1.27059 0.653133 1.64076 1.09333 1.64076ZM7.61632 13.4361C11.6682 13.4361 14.5694 12.4057 14.5694 10.945C14.5694 9.49436 11.6482 8.47389 7.61632 8.47389C3.58447 8.47389 0.653133 9.49436 0.653133 10.945C0.653133 12.4057 3.58447 13.4361 7.61632 13.4361ZM7.27617 18.1984H7.94646C11.3081 18.1984 13.8792 16.2374 14.4594 12.9759C13.0988 13.9464 10.6678 14.4967 7.61632 14.4967C4.57493 14.4967 2.12381 13.9464 0.773188 12.9659C1.33344 16.2374 3.91463 18.1984 7.27617 18.1984ZM7.61632 24.201C9.23706 24.201 11.398 23.7609 12.3485 22.8104C12.6086 22.5503 12.6186 22.2102 12.5085 21.85L11.5281 18.5785C10.4376 19.0587 9.19704 19.3089 7.95647 19.3089H7.23614C6.01559 19.3089 4.78503 19.0688 3.69452 18.5985L2.71407 21.85C2.60403 22.2102 2.62403 22.5503 2.87415 22.8104C3.83459 23.7609 5.98557 24.201 7.61632 24.201ZM13.389 8.2738L13.7792 2.75128H1.4435L1.84368 8.2738C3.27434 7.68353 5.28525 7.36338 7.61632 7.36338C9.94738 7.36338 11.9583 7.68353 13.389 8.2738Z" fill="#333333"/>
</g>
</svg>
