<svg width="25" height="19" viewBox="0 0 25 19" fill="none" xmlns="http://www.w3.org/2000/svg">
<g id="Group">
<path id="Vector" d="M4.72954 5.71261C4.95965 4.62212 5.44988 3.19146 5.78002 2.6112C6.05015 2.14098 6.34028 1.93089 6.88053 1.86085C7.64088 1.76081 9.34166 1.69077 12.433 1.69077C15.5345 1.69077 17.2352 1.7408 17.9857 1.86085C18.5259 1.94089 18.8059 2.14098 19.0861 2.6112C19.4263 3.18146 19.8865 4.62212 20.1466 5.71261C20.2366 6.08278 20.0766 6.22285 19.6964 6.20284C18.0356 6.09279 16.0547 5.99274 12.433 5.99274C8.82141 5.99274 6.84051 6.09279 5.17976 6.20284C4.78958 6.22285 4.6395 6.08278 4.72954 5.71261ZM5.21977 13.106C4.30936 13.106 3.60903 12.4057 3.60903 11.4953C3.60903 10.5749 4.30936 9.88452 5.21977 9.88452C6.13019 9.88452 6.8305 10.5749 6.8305 11.4953C6.8305 12.4057 6.13019 13.106 5.21977 13.106ZM9.79186 12.7058C9.10154 12.7058 8.63133 12.2356 8.63133 11.5452C8.63133 10.865 9.10154 10.3948 9.79186 10.3948H15.0843C15.7646 10.3948 16.2348 10.865 16.2348 11.5452C16.2348 12.2356 15.7646 12.7058 15.0843 12.7058H9.79186ZM19.6464 13.106C18.736 13.106 18.0456 12.4057 18.0456 11.4953C18.0456 10.5749 18.736 9.88452 19.6464 9.88452C20.5668 9.88452 21.2571 10.5749 21.2571 11.4953C21.2571 12.4057 20.5668 13.106 19.6464 13.106ZM12.433 15.8072C15.7946 15.8072 20.2666 15.6372 22.1575 15.417C23.5181 15.2669 24.2685 14.5166 24.2685 13.236V11.4753C24.2685 9.78447 23.9283 8.84404 23.0079 7.6435L22.1575 6.55299C21.7974 4.75217 21.1271 2.86131 20.7869 2.12097C20.2467 0.990453 19.2161 0.320146 17.8856 0.140064C17.2153 0.0500229 15.0242 0 12.433 0C9.85188 0 7.66088 0.0600275 6.99057 0.140064C5.65998 0.300138 4.61949 0.990453 4.08925 2.12097C3.7391 2.86131 3.0788 4.75217 2.70862 6.55299L1.86823 7.6435C0.937811 8.84404 0.597656 9.78447 0.597656 11.4753V13.236C0.597656 14.5166 1.358 15.2669 2.70862 15.417C4.6095 15.6372 9.07153 15.8072 12.433 15.8072ZM1.92827 18.5585H3.0988C3.84914 18.5585 4.4294 17.9782 4.4294 17.2379V14.7467L0.597656 12.9259V17.2379C0.597656 17.9782 1.17792 18.5585 1.92827 18.5585ZM21.7674 18.5585H22.9479C23.6982 18.5585 24.2685 17.9782 24.2685 17.2379V12.9259L20.4467 14.7467V17.2379C20.4467 17.9782 21.017 18.5585 21.7674 18.5585Z" fill="#333333"/>
</g>
</svg>
