<?xml version="1.0" encoding="UTF-8" standalone="no"?>
<!-- Created with Inkscape (http://www.inkscape.org/) -->

<svg
   version="1.1"
   id="svg1917"
   xml:space="preserve"
   width="682.66669"
   height="682.66669"
   viewBox="0 0 682.66669 682.66669"
   xmlns="http://www.w3.org/2000/svg"
   xmlns:svg="http://www.w3.org/2000/svg"><defs
     id="defs1921"><clipPath
       clipPathUnits="userSpaceOnUse"
       id="clipPath1931"><path
         d="M 0,512 H 512 V 0 H 0 Z"
         id="path1929" /></clipPath></defs><g
     id="g1923"
     transform="matrix(1.3333333,0,0,-1.3333333,0,682.66667)"><g
       id="g1925"><g
         id="g1927"
         clip-path="url(#clipPath1931)"><g
           id="g1933"
           transform="translate(171.7637,110.8555)"><path
             d="m 0,0 v -25 c 0,-19.33 15.67,-35 35,-35 19.33,0 35,15.67 35,35 v 20.725"
             style="fill:none;stroke:#000000;stroke-width:30;stroke-linecap:round;stroke-linejoin:round;stroke-miterlimit:10;stroke-dasharray:none;stroke-opacity:1"
             id="path1935" /></g><g
           id="g1937"
           transform="translate(101.7637,90.2446)"><path
             d="m 0,0 v -4.389 c 0,-19.33 15.67,-35 35,-35 19.33,0 35,15.67 35,35 v 25"
             style="fill:none;stroke:#000000;stroke-width:30;stroke-linecap:round;stroke-linejoin:round;stroke-miterlimit:10;stroke-dasharray:none;stroke-opacity:1"
             id="path1939" /></g><g
           id="g1941"
           transform="translate(259.1689,362.209)"><path
             d="m 0,0 137.19,-71.351 h 38.641 v -188.291 c -28.386,-14.196 -61.466,-21.711 -93.238,-21.711 -31.774,0 -63.574,7.515 -91.964,21.711 l -16.591,8.288 H -145.13"
             style="fill:none;stroke:#000000;stroke-width:30;stroke-linecap:round;stroke-linejoin:round;stroke-miterlimit:10;stroke-dasharray:none;stroke-opacity:1"
             id="path1943" /></g><g
           id="g1945"
           transform="translate(195.8115,372.4766)"><path
             d="m 0,0 -8.968,3.986 c -13.249,5.889 -28.647,4.147 -40.246,-4.552 l -42.468,-31.851 c -12.358,-9.269 -22.626,-21.037 -30.134,-34.538 l -54.542,-98.074 c -9.363,-16.836 -3.491,-38.071 13.193,-47.702 15.253,-8.807 34.225,-4.968 45.053,8.168"
             style="fill:none;stroke:#000000;stroke-width:30;stroke-linecap:round;stroke-linejoin:round;stroke-miterlimit:10;stroke-dasharray:none;stroke-opacity:1"
             id="path1947" /></g><g
           id="g1949"
           transform="translate(255.582,475.9956)"><path
             d="m 0,0 -24.997,-43.303 51.96,-29.999 25.002,43.303 c 5.523,9.567 2.245,21.799 -7.322,27.322 L 27.32,7.322 C 17.754,12.844 5.522,9.566 0,0 Z"
             style="fill:none;stroke:#000000;stroke-width:30;stroke-linecap:round;stroke-linejoin:round;stroke-miterlimit:10;stroke-dasharray:none;stroke-opacity:1"
             id="path1951" /></g><g
           id="g1953"
           transform="translate(154.457,180.856)"><path
             d="m 0,0 128.088,221.838 -51.965,29.999 -180.006,-311.76 -21.094,-94.933 73.054,64.93 11.505,19.926"
             style="fill:none;stroke:#000000;stroke-width:30;stroke-linecap:round;stroke-linejoin:round;stroke-miterlimit:10;stroke-dasharray:none;stroke-opacity:1"
             id="path1955" /></g><path
           d="m 497,76 h -62 v 240 h 62 z"
           style="fill:none;stroke:#000000;stroke-width:30;stroke-linecap:round;stroke-linejoin:round;stroke-miterlimit:10;stroke-dasharray:none;stroke-opacity:1"
           id="path1957" /><g
           id="g1959"
           transform="translate(275,210.8555)"><path
             d="m 0,0 -40,-30 h -128.24 c -19.33,0 -35,-15.67 -35,-35 v 0 c 0,-19.331 15.67,-35 35,-35 h 126.448"
             style="fill:none;stroke:#000000;stroke-width:30;stroke-linecap:round;stroke-linejoin:round;stroke-miterlimit:10;stroke-dasharray:none;stroke-opacity:1"
             id="path1961" /></g></g></g></g></svg>
