<?xml version="1.0" encoding="UTF-8" standalone="no"?>
<!-- Created with Inkscape (http://www.inkscape.org/) -->

<svg
   version="1.1"
   id="svg7317"
   xml:space="preserve"
   width="682.66669"
   height="682.66669"
   viewBox="0 0 682.66669 682.66669"
   xmlns="http://www.w3.org/2000/svg"
   xmlns:svg="http://www.w3.org/2000/svg"><defs
     id="defs7321"><clipPath
       clipPathUnits="userSpaceOnUse"
       id="clipPath7331"><path
         d="M 0,512 H 512 V 0 H 0 Z"
         id="path7329" /></clipPath><clipPath
       clipPathUnits="userSpaceOnUse"
       id="clipPath7435"><path
         d="M 0,512 H 512 V 0 H 0 Z"
         id="path7433" /></clipPath></defs><g
     id="g7323"
     transform="matrix(1.3333333,0,0,-1.3333333,0,682.66667)"><g
       id="g7325"><g
         id="g7327"
         clip-path="url(#clipPath7331)"><g
           id="g7333"
           transform="translate(69.6641,282.293)"><path
             d="M 0,0 C -120.558,-209.947 322.215,-200.54 251.66,-13.798 245.906,-12.184 241.456,1.445 235.361,2.267 181.135,9.661 129.26,4.278 57.884,7.621 46.828,7.849 20.722,8.443 0,0"
             style="fill:#e6e6e6;fill-opacity:1;fill-rule:evenodd;stroke:none"
             id="path7335" /></g><g
           id="g7337"
           transform="translate(7.5,182.2773)"><path
             d="m 0,0 v -118.459 c 0,-12.835 10.488,-23.318 23.329,-23.318 h 450.342 c 12.812,0 23.329,10.483 23.329,23.318 V 0 H 286.102 254.978 72.17 C 66.671,0 62.164,4.506 62.164,10.002 v 90.014 98.004 c 0,17.084 -13.975,31.052 -31.068,31.052 C 13.975,229.072 0,215.104 0,198.02 Z"
             style="fill:#b5722f;fill-opacity:1;fill-rule:evenodd;stroke:none"
             id="path7339" /></g><g
           id="g7341"
           transform="translate(114.3096,289.9707)"><path
             d="m 0,0 c 1.332,-50.829 37.418,-93.498 86.684,-107.693 h 61.484 0.057 10.147 20.92 l 25.144,41.706 -17.434,44.511 c -1.304,-12.551 -5.499,-21.051 -14.797,-30.401 -0.226,-0.227 -0.481,-0.481 -0.736,-0.708 -7.966,-7.792 -18.029,-13.884 -28.744,-18.077 -19.842,-7.706 -41.953,-8.812 -57.345,-1.813 L 49.323,-56.07 C 24.435,-44.766 13.691,-23.034 13.238,-0.057 9.95,0 5.357,0.114 0,0"
             style="fill:#c2c7cc;fill-opacity:1;fill-rule:evenodd;stroke:none"
             id="path7343" /></g><g
           id="g7345"
           transform="translate(255.9854,155.5596)"><path
             d="m 0,0 c -3.345,-37.002 35.32,-75.818 73.446,-78.623 h 40.281 32.145 42.944 c 46.007,0 59.699,9.576 59.699,53.237 V -2.833 0 26.718 H 37.616 6.549 C 3.771,18.644 0.992,10.88 0,0"
             style="fill:#91561a;fill-opacity:1;fill-rule:evenodd;stroke:none"
             id="path7347" /></g><g
           id="g7349"
           transform="translate(238.1562,374.6299)"><path
             d="m 0,0 -5.528,-12.099 27.382,-12.465 c 2.949,-1.332 5.84,-3.061 8.646,-5.101 4.706,10.002 -0.623,25.811 -10.8,30.43 L 11.707,4.392 C 7.284,6.403 2.012,4.448 0,0"
             style="fill:#eda93b;fill-opacity:1;fill-rule:evenodd;stroke:none"
             id="path7351" /></g><g
           id="g7353"
           transform="translate(223.9541,366.4697)"><path
             d="m 0,0 c -5.924,-93.13 -49.578,-67.603 -60.321,-132.569 l 36.056,-16.405 c 15.393,-6.999 37.503,-5.893 57.345,1.813 11.056,4.307 21.402,10.653 29.481,18.785 9.297,9.35 13.493,17.85 14.796,30.401 0.115,0.878 0.171,1.785 0.256,2.748 0.227,3.315 0.227,6.687 0,10.087 -0.539,8.018 -2.325,16.121 -5.046,23.827 -5.811,16.377 -15.987,31.053 -27.865,39.808 -2.806,2.04 -5.697,3.769 -8.645,5.101 L 8.674,-3.938 Z"
             style="fill:#ffdda6;fill-opacity:1;fill-rule:evenodd;stroke:none"
             id="path7355" /></g><g
           id="g7357"
           transform="translate(223.9541,366.4697)"><path
             d="m 0,0 c -52.725,23.97 -95.812,-26.916 -96.406,-74.033 -0.029,-0.851 -0.029,-1.7 0,-2.523 0.453,-22.977 11.196,-44.709 36.085,-56.013 C -49.578,-67.603 -5.924,-93.13 0,0"
             style="fill:#808080;fill-opacity:1;fill-rule:evenodd;stroke:none"
             id="path7359" /></g><g
           id="g7361"
           transform="translate(223.9541,366.4697)"><path
             d="m 0,0 c -37.021,16.83 -69.279,-3.229 -85.437,-33.008 17.717,19.607 44.165,29.552 73.588,16.151 l 8.674,-3.939 0.907,-0.425 C -1.247,-14.903 -0.481,-7.876 0,0"
             style="fill:#666666;fill-opacity:1;fill-rule:evenodd;stroke:none"
             id="path7363" /></g><g
           id="g7365"
           transform="translate(223.9541,366.4697)"><path
             d="M 0,0 C -0.481,-7.678 -1.219,-14.563 -2.183,-20.739 L 24.18,-32.725 c 2.976,-1.359 5.868,-3.088 8.645,-5.128 11.906,-8.726 22.054,-23.403 27.865,-39.807 2.749,-7.707 4.507,-15.781 5.045,-23.828 0.228,-3.371 0.228,-6.772 0,-10.087 -0.056,-0.935 -0.141,-1.869 -0.226,-2.748 -0.595,-5.581 -1.757,-10.369 -3.685,-14.761 0.255,0.227 0.51,0.481 0.737,0.708 9.297,9.35 13.493,17.85 14.796,30.401 0.115,0.878 0.171,1.785 0.256,2.748 0.227,3.315 0.227,6.687 0,10.087 -0.539,8.018 -2.325,16.121 -5.046,23.827 -5.811,16.377 -15.987,31.053 -27.865,39.808 -2.806,2.04 -5.697,3.769 -8.645,5.101 L 8.674,-3.938 Z"
             style="fill:#fcc368;fill-opacity:1;fill-rule:evenodd;stroke:none"
             id="path7367" /></g><g
           id="g7369"
           transform="translate(293.6016,182.2773)"><path
             d="m 0,0 c -2.835,-30.4 15.817,-57.601 45.809,-64.599 h 50.712 27.268 36.454 c 39.033,0 50.655,7.877 50.655,43.746 V -2.323 0 136.48 c 0,9.35 -7.653,16.999 -17.007,16.999 H 73.786 c -61.796,0 -62.362,-22.014 -65.82,-54.426 0.226,-3.401 0.226,-6.773 0,-10.087 C 7.881,88.002 7.824,87.096 7.71,86.218 18.511,30.571 2.494,26.605 0,0"
             style="fill:#f78411;fill-opacity:1;fill-rule:evenodd;stroke:none"
             id="path7371" /></g><g
           id="g7373"
           transform="translate(367.6992,193.3271)"><path
             d="m 0,0 -3.515,-11.05 -4.761,-15.015 c -1.928,-6.121 -6.123,-9.266 -8.817,-7.594 -15.817,9.917 -28.97,-11.248 -10.63,-21.618 4.507,-2.522 0.653,-9.237 0.057,-11.758 -0.312,-1.417 -0.51,-2.777 -0.623,-4.137 -0.143,-1.53 -0.143,-3.031 0,-4.476 2.012,-23.035 35.149,-32.244 50.712,0 1.219,2.521 2.324,5.297 3.316,8.33 l 18.142,56.268 c 4.365,13.516 3.345,23.488 -0.822,36.833 l -9.61,30.798 H -3.09 L -3.203,31.167 1.077,15.641 C 2.211,8.217 2.239,7.084 0,0"
             style="fill:#ffdda6;fill-opacity:1;fill-rule:evenodd;stroke:none"
             id="path7375" /></g><g
           id="g7377"
           transform="translate(392.5029,219.1104)"><path
             d="m 0,0 c 4.139,-13.345 5.187,-23.317 0.822,-36.833 l -13.096,-40.629 -5.075,-15.64 c -0.963,-3.032 -2.069,-5.808 -3.288,-8.33 -4.96,-10.256 -11.678,-16.319 -18.623,-19.068 11.509,-4.788 27.411,-0.481 36.879,19.068 1.219,2.522 2.324,5.298 3.317,8.33 l 4.733,14.677 13.408,41.592 c 0,0.028 0,0.058 0.028,0.085 v 0.058 c 0.369,1.104 0.681,2.181 0.964,3.229 3.175,11.843 1.985,21.222 -1.814,33.404 V 0 L 8.646,30.798 8.306,30.373 c 0,-0.028 0,-0.028 -0.029,-0.028 C 8.249,30.288 8.221,30.26 8.192,30.203 6.265,27.767 3.884,25.613 1.36,23.63 -0.964,21.845 -3.401,20.173 -5.812,18.53 Z"
             style="fill:#fcc368;fill-opacity:1;fill-rule:evenodd;stroke:none"
             id="path7379" /></g><g
           id="g7381"
           transform="translate(301.5674,281.3301)"><path
             d="m 0,0 29.31,-40.8 c 7.456,-10.398 20.75,-18.757 33.619,-16.036 1.814,0.368 3.629,0.963 5.414,1.813 4.423,2.125 9.61,6.318 13.72,9.209 5.924,4.193 12.728,8.215 17.178,13.967 l 0.34,0.425 c 8.815,11.702 9.553,28.305 0.652,40.885 L 77.527,41.648 C 73.843,46.721 69.902,50.942 65.82,54.427 32.854,82.307 -9.979,60.349 -5.046,23.827 -2.325,16.121 -0.539,8.018 0,0"
             style="fill:#64b0d9;fill-opacity:1;fill-rule:evenodd;stroke:none"
             id="path7383" /></g><g
           id="g7385"
           transform="translate(361.5771,308.6143)"><path
             d="m 0,0 22.705,-32.187 c 3.997,-5.666 6.038,-12.126 6.293,-18.614 0.113,-2.635 -0.113,-5.299 -0.596,-7.905 -0.991,-5.156 -3.146,-10.086 -6.349,-14.393 0.028,0.029 0.056,0.057 0.114,0.085 3.288,2.324 6.831,4.59 10.119,7.14 2.58,2.012 4.961,4.193 6.917,6.715 0.028,0 0.028,0 0.028,0.028 l 0.34,0.425 c 1.843,2.436 3.317,5.129 4.45,7.905 4.252,10.597 3.232,23.034 -3.797,32.98 L 17.518,14.364 C 13.833,19.437 9.893,23.658 5.811,27.143 -18.199,47.458 -47.48,41.31 -59.67,22.326 -45.667,28.05 -27.554,26.151 -11.708,12.75 -7.626,9.293 -3.686,5.071 0,0"
             style="fill:#4a83c9;fill-opacity:1;fill-rule:evenodd;stroke:none"
             id="path7387" /></g><g
           id="g7389"
           transform="translate(339.4102,117.6787)"><path
             d="m 0,0 c -30.076,6.998 -48.644,34.142 -45.809,64.599 2.495,26.605 18.511,30.571 7.71,86.217 m 144.115,67.262 h 42.066 c 9.355,0 17.008,-7.649 17.008,-16.999 V 43.746 C 165.09,7.877 153.468,0 114.435,0 H 50.712 M 27.978,218.078 h 49.04"
             style="fill:none;stroke:#000000;stroke-width:15.118;stroke-linecap:round;stroke-linejoin:round;stroke-miterlimit:10;stroke-dasharray:none;stroke-opacity:1"
             id="path7391" /></g><g
           id="g7393"
           transform="translate(127.5479,289.9141)"><path
             d="M 0,0 C -11.056,0.228 -37.162,0.822 -57.884,-7.621"
             style="fill:none;stroke:#000000;stroke-width:15.118;stroke-linecap:round;stroke-linejoin:round;stroke-miterlimit:10;stroke-dasharray:none;stroke-opacity:1"
             id="path7395" /></g><g
           id="g7397"
           transform="translate(401.1484,249.9082)"><path
             d="m 0,0 9.609,-30.798 c 4.196,-13.515 5.188,-23.317 0.851,-36.748 l -18.17,-56.353 c -14.995,-46.466 -60.492,-30.657 -53.405,0.283 0.595,2.521 4.45,9.236 -0.057,11.758 -18.34,10.37 -5.187,31.535 10.63,21.618 2.693,-1.672 6.889,1.473 8.816,7.594 l 8.277,26.065 c 2.239,7.084 2.211,8.217 1.077,15.641 l -4.28,15.526"
             style="fill:none;stroke:#000000;stroke-width:15.118;stroke-linecap:round;stroke-linejoin:round;stroke-miterlimit:10;stroke-dasharray:none;stroke-opacity:1"
             id="path7399" /></g><g
           id="g7401"
           transform="translate(163.6328,233.9004)"><path
             d="M 0,0 C 10.743,64.967 54.397,39.439 60.321,132.569 7.597,156.539 -35.49,105.653 -36.085,58.536 -36.397,34.651 -25.795,11.701 0,0 Z"
             style="fill:none;stroke:#000000;stroke-width:15.118;stroke-linecap:round;stroke-linejoin:round;stroke-miterlimit:10;stroke-dasharray:none;stroke-opacity:1"
             id="path7403" /></g><g
           id="g7405"
           transform="translate(163.6328,233.9004)"><path
             d="m 0,0 36.057,-16.404 c 23.953,-10.88 64.205,-2.154 86.825,20.597 9.95,10.001 14.06,19.069 15.053,33.15 2.239,31.959 -17.632,67.97 -41.557,78.822 l -36.057,16.404"
             style="fill:none;stroke:#000000;stroke-width:15.118;stroke-linecap:round;stroke-linejoin:round;stroke-miterlimit:10;stroke-dasharray:none;stroke-opacity:1"
             id="path7407" /></g><g
           id="g7409"
           transform="translate(232.6279,362.5312)"><path
             d="m 0,0 5.528,12.099 c 2.012,4.448 7.285,6.403 11.707,4.391 l 7.994,-3.627 C 35.405,8.245 40.734,-7.564 36.028,-17.566"
             style="fill:none;stroke:#000000;stroke-width:15.118;stroke-linecap:round;stroke-linejoin:round;stroke-miterlimit:10;stroke-dasharray:none;stroke-opacity:1"
             id="path7411" /></g><g
           id="g7413"
           transform="translate(154.5332,182.2773)"><path
             d="m 0,0 h 139.068 m 210.899,-2.323 v -116.136 c 0,-12.835 -10.517,-23.318 -23.329,-23.318 h -450.342 c -12.841,0 -23.329,10.483 -23.329,23.318 V 0 198.02 c 0,17.084 13.974,31.052 31.095,31.052 17.094,0 31.069,-13.968 31.069,-31.052 V 10.002 C -84.869,4.506 -80.362,0 -74.863,0 h 46.261"
             style="fill:none;stroke:#000000;stroke-width:15.118;stroke-linecap:round;stroke-linejoin:round;stroke-miterlimit:10;stroke-dasharray:none;stroke-opacity:1"
             id="path7415" /></g><g
           id="g7417"
           transform="translate(296.5215,305.1572)"><path
             d="m 0,0 c -5.527,41.055 49.295,63.692 82.573,17.821 l 22.706,-32.185 c 10.998,-15.583 7.257,-37.343 -8.334,-48.336 L 77.272,-76.555 C 61.994,-87.35 43.625,-77.547 34.355,-64.627 l -29.309,40.8"
             style="fill:none;stroke:#000000;stroke-width:15.118;stroke-linecap:round;stroke-linejoin:round;stroke-miterlimit:10;stroke-dasharray:none;stroke-opacity:1"
             id="path7419" /></g><g
           id="g7421"
           transform="translate(310.4111,436.1406)"><path
             d="M 0,0 H 35.405 L 1.162,-34.057 h 36"
             style="fill:none;stroke:#000000;stroke-width:15.118;stroke-linecap:round;stroke-linejoin:round;stroke-miterlimit:10;stroke-dasharray:none;stroke-opacity:1"
             id="path7423" /></g><g
           id="g7425"
           transform="translate(384.6504,471.5)"><path
             d="M 0,0 H 35.405 L 1.163,-34.027 h 36"
             style="fill:none;stroke:#000000;stroke-width:15.118;stroke-linecap:round;stroke-linejoin:round;stroke-miterlimit:10;stroke-dasharray:none;stroke-opacity:1"
             id="path7427" /></g></g></g><g
       id="g7429"><g
         id="g7431"
         clip-path="url(#clipPath7435)"><g
           id="g7437"
           transform="translate(-61.8271,404.8369)"><path
             d="m 0,0 c 74.858,59.717 -18.922,147.743 -74.858,67.519 l -67.118,-96.258 6.595,-31.952 42.088,-13.71 z"
             style="fill:#50d960;fill-opacity:1;fill-rule:evenodd;stroke:none"
             id="path7439" /></g><g
           id="g7441"
           transform="translate(-115.2109,362.2725)"><path
             d="m 0,0 -39.909,-31.837 m -48.683,45.662 67.117,96.258 c 55.937,80.225 149.717,-7.802 74.859,-67.519 L 25.89,20.623"
             style="fill:none;stroke:#000000;stroke-width:15.118;stroke-linecap:round;stroke-linejoin:round;stroke-miterlimit:10;stroke-dasharray:none;stroke-opacity:1"
             id="path7443" /></g></g></g></g></svg>
