<svg width="15" height="13" viewBox="0 0 15 13" fill="none" xmlns="http://www.w3.org/2000/svg">
<g id="Group">
<path id="Vector" d="M8.38907 5.49883C8.57818 5.29512 8.73322 5.08979 8.92744 4.91542C9.52374 4.37764 10.2291 4.10712 11.0537 4.11364C11.5068 4.1169 11.9532 4.14786 12.3894 4.26845C13.3877 4.54386 13.967 5.20223 14.2447 6.13438C14.4526 6.83349 14.49 7.55216 14.4917 8.27245C14.4951 9.79127 14.4866 11.3117 14.4917 12.8305C14.4917 12.9723 14.4508 13.0098 14.3043 13.0098C13.4866 13.0033 12.6671 13.0033 11.8493 13.0098C11.7045 13.0098 11.6738 12.969 11.6738 12.8387C11.6789 11.3932 11.6789 9.94772 11.6738 8.50061C11.6738 8.13883 11.6483 7.77542 11.5426 7.42342C11.3467 6.77483 10.8611 6.44401 10.1507 6.47986C9.17959 6.52875 8.67529 6.98831 8.55262 7.93186C8.52366 8.15675 8.50833 8.38327 8.51003 8.60979C8.51003 10.0162 8.51004 11.4225 8.51344 12.8289C8.51344 12.9691 8.47766 13.0098 8.32773 13.0098C7.50314 13.0033 6.67856 13.0033 5.85396 13.0098C5.72108 13.0098 5.68359 12.9772 5.68359 12.8485C5.687 10.065 5.687 7.28001 5.68359 4.4966C5.68359 4.35809 5.73129 4.32712 5.86759 4.32712C6.64959 4.33201 7.43329 4.33364 8.21529 4.32712C8.36011 4.32712 8.39588 4.37112 8.39418 4.50149C8.38566 4.83394 8.39077 5.16638 8.39077 5.50046L8.38907 5.49883Z" fill="#E0E0E0"/>
<path id="Vector_2" d="M3.90555 8.68005C3.90555 10.0571 3.90384 11.4341 3.90895 12.8112C3.90895 12.9644 3.86976 13.01 3.7045 13.0084C2.88673 13.0002 2.06895 13.0018 1.24947 13.0084C1.11829 13.0084 1.0791 12.9774 1.0791 12.8486C1.08251 10.0604 1.08251 7.27206 1.0791 4.48213C1.0791 4.36643 1.10806 4.32568 1.23584 4.32568C2.06554 4.33057 2.89525 4.3322 3.72496 4.32568C3.88511 4.32568 3.90555 4.38272 3.90555 4.51472C3.90214 5.90317 3.90385 7.29161 3.90385 8.68005H3.90555Z" fill="#E0E0E0"/>
<path id="Vector_3" d="M4.12976 1.56338C4.12976 2.42871 3.39717 3.13271 2.49421 3.13271C1.60317 3.13271 0.863771 2.42871 0.860363 1.57641C0.856956 0.71597 1.59636 0.00708008 2.49762 0.00708008C3.39206 0.00708008 4.12806 0.709449 4.12976 1.56175V1.56338Z" fill="#E0E0E0"/>
</g>
</svg>
