<svg width="178" height="73" viewBox="0 0 178 73" fill="none" xmlns="http://www.w3.org/2000/svg">
<g clip-path="url(#clip0_1663_746)">
<path d="M96.0642 53.9946V26.3855L84.5544 47.338H80.9236L69.4138 26.3855V53.9946H63.1816V15.2603H69.7881L82.7203 38.8828L95.6712 15.2603H102.278V53.9946H96.0455H96.0642Z" fill="white"/>
<path d="M111.092 53.9946V15.2603H124.978C129.208 15.2603 132.708 16.1132 135.534 17.8561C138.341 19.5805 140.456 21.9168 141.897 24.8465C143.338 27.7761 144.049 31.021 144.049 34.5811C144.049 38.512 143.263 41.9237 141.71 44.8348C140.156 47.7459 137.929 50.008 135.066 51.6026C132.203 53.1973 128.852 54.0131 124.997 54.0131H111.111L111.092 53.9946ZM137.742 34.5625C137.742 31.8368 137.237 29.4264 136.226 27.3682C135.216 25.2915 133.775 23.6598 131.866 22.4546C129.975 21.2493 127.673 20.656 124.96 20.656H117.305V48.5988H124.96C127.711 48.5988 130.032 47.9869 131.922 46.7446C133.812 45.5023 135.253 43.8335 136.245 41.7197C137.237 39.6059 137.723 37.2326 137.723 34.5625H137.742Z" fill="white"/>
<path d="M173.602 24.3642C173.265 23.9563 172.741 23.5298 172.03 23.0848C171.319 22.6398 170.495 22.2133 169.56 21.8239C168.624 21.4346 167.595 21.1193 166.472 20.8412C165.349 20.5631 164.207 20.4333 163.028 20.4333C160.464 20.4333 158.555 20.8968 157.301 21.8425C156.047 22.7881 155.43 24.0861 155.43 25.7548C155.43 26.9972 155.785 27.9613 156.478 28.6845C157.17 29.4076 158.256 30.001 159.697 30.446C161.157 30.891 162.934 31.3731 165.068 31.8923C167.744 32.5041 170.046 33.2458 171.993 34.1173C173.92 34.9888 175.399 36.1198 176.447 37.529C177.495 38.9382 178.019 40.8295 178.019 43.1844C178.019 45.0942 177.645 46.763 176.896 48.1722C176.147 49.5814 175.099 50.731 173.789 51.621C172.46 52.511 170.945 53.1785 169.223 53.605C167.501 54.0315 165.648 54.254 163.664 54.254C161.681 54.254 159.79 54.05 157.844 53.6235C155.916 53.1971 154.082 52.6037 152.342 51.825C150.601 51.0462 148.973 50.082 147.457 48.9695L150.32 43.7221C150.751 44.1856 151.443 44.7048 152.36 45.2796C153.277 45.8544 154.325 46.3736 155.523 46.8928C156.721 47.3934 158.012 47.8384 159.435 48.1722C160.838 48.5245 162.298 48.6913 163.758 48.6913C166.21 48.6913 168.1 48.2649 169.41 47.4305C170.72 46.5961 171.356 45.3538 171.356 43.7221C171.356 42.4612 170.926 41.4229 170.065 40.6441C169.204 39.8653 167.969 39.1978 166.378 38.6601C164.787 38.1224 162.86 37.5661 160.633 37.0284C158.069 36.3794 155.916 35.6378 154.194 34.8034C152.473 33.969 151.181 32.9121 150.339 31.6512C149.497 30.3904 149.067 28.7401 149.067 26.7005C149.067 24.1602 149.684 22.0279 150.901 20.2664C152.136 18.5049 153.82 17.1884 155.991 16.2984C158.162 15.4084 160.558 14.9634 163.215 14.9634C164.974 14.9634 166.659 15.1488 168.25 15.5382C169.84 15.9276 171.338 16.4467 172.704 17.0957C174.089 17.7447 175.305 18.5049 176.372 19.3393L173.621 24.3642H173.602Z" fill="white"/>
<path d="M63.1828 72.9074V60.2246H71.6795V61.9861H65.204V65.7687H70.6314V67.4189H65.204V72.9074H63.1641H63.1828Z" fill="white"/>
<path d="M78.698 73C77.7997 73 76.9762 72.8146 76.2276 72.4623C75.479 72.11 74.8427 71.6279 74.2812 70.9975C73.7385 70.3856 73.308 69.6995 73.0273 68.9208C72.7466 68.142 72.5781 67.3632 72.5781 66.5474C72.5781 65.7315 72.7278 64.8971 73.046 64.1369C73.3642 63.3767 73.7946 62.6906 74.3561 62.0787C74.9175 61.4854 75.5726 61.0033 76.3024 60.651C77.0323 60.2987 77.8558 60.1318 78.7354 60.1318C79.615 60.1318 80.4946 60.3173 81.2245 60.6881C81.9544 61.0589 82.6095 61.5596 83.1522 62.1715C83.6949 62.7833 84.1067 63.4879 84.3874 64.2482C84.6681 65.0084 84.8178 65.7872 84.8178 66.603C84.8178 67.4189 84.6681 68.2347 84.3687 69.0135C84.0692 69.7737 83.6388 70.4598 83.0773 71.0716C82.5159 71.665 81.8796 72.1471 81.131 72.4994C80.4011 72.8517 79.5776 73.0186 78.6793 73.0186L78.698 73ZM74.6555 66.5659C74.6555 67.1778 74.7491 67.7526 74.9362 68.3089C75.1234 68.8651 75.3854 69.3472 75.741 69.7922C76.0966 70.2187 76.527 70.571 77.0136 70.812C77.5002 71.0531 78.0804 71.1829 78.7167 71.1829C79.353 71.1829 79.9519 71.0531 80.4385 70.7935C80.9251 70.5339 81.3743 70.1816 81.7111 69.7366C82.0667 69.2916 82.3287 68.791 82.4972 68.2533C82.6656 67.7155 82.7592 67.1407 82.7592 66.5659C82.7592 65.954 82.6656 65.3792 82.4785 64.8415C82.2913 64.3038 82.0106 63.8032 81.655 63.3767C81.2994 62.9502 80.8689 62.5979 80.3636 62.3569C79.8583 62.0973 79.3156 61.986 78.698 61.986C78.043 61.986 77.4628 62.1158 76.9575 62.3754C76.4522 62.635 76.0404 62.9873 75.6848 63.4323C75.3293 63.8773 75.0672 64.3594 74.8988 64.9157C74.7117 65.4719 74.6368 66.0282 74.6368 66.603L74.6555 66.5659Z" fill="white"/>
<path d="M86.9512 72.9074V60.2246H92.5283C93.1085 60.2246 93.6325 60.3359 94.1191 60.5769C94.6057 60.818 95.0174 61.1332 95.373 61.5226C95.7286 61.9119 96.0093 62.3569 96.1965 62.8576C96.4023 63.3582 96.4959 63.8403 96.4959 64.3409C96.4959 64.9157 96.4023 65.4535 96.1965 65.9541C95.9906 66.4547 95.7099 66.8997 95.3169 67.2706C94.9426 67.6414 94.4934 67.901 93.9881 68.0679L97.0012 72.8888H94.7367L91.9668 68.4758H89.0098V72.8888H86.9699L86.9512 72.9074ZM88.9911 66.7329H92.5096C92.8839 66.7329 93.2208 66.6216 93.5015 66.3991C93.7822 66.1766 94.0255 65.8985 94.194 65.5276C94.3624 65.1753 94.4372 64.786 94.4372 64.3409C94.4372 63.8959 94.3437 63.5066 94.1378 63.1543C93.9319 62.802 93.6886 62.5053 93.3892 62.3013C93.0898 62.0974 92.7529 61.9861 92.3973 61.9861H88.9911V66.7143V66.7329Z" fill="white"/>
<path d="M109.615 72.9069V63.8769L105.853 70.7375H104.655L100.893 63.8769V72.9069H98.8535V60.2241H101.024L105.254 67.9562L109.484 60.2241H111.655V72.9069H109.615Z" fill="white"/>
<path d="M118.224 60.2432H120.132L125.111 72.9259H122.977L121.723 69.4771H116.614L115.36 72.9259H113.227L118.224 60.2432ZM121.199 67.9937L119.178 62.4497L117.157 67.9937H121.199Z" fill="white"/>
<path d="M134.88 62.0047H130.631V72.9074H128.591V62.0047H124.324V60.2432H134.88V62.0047Z" fill="white"/>
<path d="M136.584 72.9069V60.2241H138.624V72.9069H136.584Z" fill="white"/>
<path d="M146.784 73C145.886 73 145.062 72.8146 144.314 72.4623C143.565 72.11 142.929 71.6279 142.367 70.9975C141.824 70.3856 141.394 69.6995 141.113 68.9208C140.832 68.142 140.664 67.3632 140.664 66.5474C140.664 65.7315 140.814 64.8971 141.132 64.1369C141.45 63.3767 141.881 62.6906 142.442 62.0787C143.003 61.4854 143.658 61.0033 144.388 60.651C145.118 60.2987 145.942 60.1318 146.821 60.1318C147.701 60.1318 148.581 60.3173 149.31 60.6881C150.04 61.0589 150.695 61.5596 151.238 62.1715C151.781 62.7833 152.193 63.4879 152.473 64.2482C152.754 65.0084 152.904 65.7872 152.904 66.603C152.904 67.4189 152.754 68.2347 152.455 69.0135C152.155 69.7737 151.725 70.4598 151.163 71.0716C150.602 71.665 149.966 72.1471 149.217 72.4994C148.487 72.8517 147.664 73.0186 146.765 73.0186L146.784 73ZM142.741 66.5659C142.741 67.1778 142.835 67.7526 143.022 68.3089C143.209 68.8651 143.471 69.3472 143.827 69.7922C144.183 70.2187 144.613 70.571 145.1 70.812C145.586 71.0531 146.166 71.1829 146.803 71.1829C147.439 71.1829 148.038 71.0531 148.524 70.7935C149.011 70.5339 149.46 70.1816 149.797 69.7366C150.153 69.2916 150.415 68.791 150.583 68.2533C150.752 67.7155 150.845 67.1407 150.845 66.5659C150.845 65.954 150.752 65.3792 150.564 64.8415C150.377 64.3038 150.097 63.8032 149.741 63.3767C149.385 62.9502 148.955 62.5979 148.45 62.3569C147.944 62.0973 147.402 61.986 146.784 61.986C146.129 61.986 145.549 62.1158 145.043 62.3754C144.538 62.635 144.126 62.9873 143.771 63.4323C143.415 63.8773 143.153 64.3594 142.985 64.9157C142.798 65.4719 142.723 66.0282 142.723 66.603L142.741 66.5659Z" fill="white"/>
<path d="M157.077 63.9516V72.9074H155.037V60.2246H156.703L163.946 69.3844V60.2432H165.967V72.9074H164.226L157.096 63.9516H157.077Z" fill="white"/>
<path d="M176.428 63.2284C176.316 63.0986 176.147 62.9502 175.923 62.8019C175.698 62.6536 175.417 62.5238 175.118 62.394C174.818 62.2642 174.481 62.1529 174.107 62.0787C173.733 61.986 173.359 61.949 172.984 61.949C172.142 61.949 171.524 62.0973 171.113 62.4125C170.701 62.7277 170.495 63.1542 170.495 63.6919C170.495 64.0998 170.607 64.415 170.832 64.6561C171.057 64.8971 171.412 65.0826 171.88 65.2309C172.348 65.3792 172.947 65.5276 173.639 65.6944C174.519 65.8984 175.267 66.1395 175.904 66.4176C176.54 66.6957 177.027 67.0666 177.364 67.5301C177.7 67.9937 177.869 68.6055 177.869 69.3843C177.869 70.0147 177.738 70.5525 177.495 71.016C177.251 71.4796 176.914 71.8504 176.484 72.1471C176.054 72.4437 175.548 72.6477 174.987 72.796C174.425 72.9444 173.808 73 173.171 73C172.535 73 171.899 72.9258 171.262 72.796C170.626 72.6663 170.027 72.4623 169.466 72.2027C168.904 71.9431 168.362 71.6279 167.875 71.2571L168.811 69.5512C168.96 69.6995 169.185 69.8664 169.485 70.0518C169.784 70.2372 170.121 70.4041 170.514 70.571C170.907 70.7379 171.337 70.8862 171.786 70.9975C172.254 71.1087 172.722 71.1644 173.209 71.1644C174.014 71.1644 174.631 71.0346 175.062 70.7564C175.492 70.4783 175.698 70.0704 175.698 69.5512C175.698 69.1433 175.548 68.8095 175.267 68.5499C174.987 68.2903 174.575 68.0864 174.07 67.9009C173.546 67.7155 172.928 67.5487 172.179 67.3632C171.337 67.1593 170.626 66.8997 170.065 66.6401C169.503 66.362 169.073 66.0282 168.811 65.6017C168.53 65.1938 168.399 64.6561 168.399 63.9886C168.399 63.1542 168.605 62.4496 168.998 61.8748C169.41 61.3 169.952 60.8735 170.664 60.5768C171.375 60.2802 172.161 60.1318 173.022 60.1318C173.602 60.1318 174.145 60.1875 174.669 60.3173C175.193 60.447 175.679 60.6139 176.128 60.8179C176.578 61.0404 176.971 61.2814 177.326 61.541L176.428 63.1913V63.2284Z" fill="white"/>
<path d="M46.413 52.7338C45.8328 55.3297 43.1566 61.8009 37.2238 67.5489C35.7828 67.586 34.454 67.4562 33.3311 67.2708L34.2668 66.5662C37.3736 63.9888 41.9775 59.205 43.5496 52.1405C45.9077 41.4973 39.8814 32.1707 36.5875 27.0716C34.6224 24.0307 32.3018 21.2123 29.6629 18.6535C26.9305 21.268 24.4601 24.142 22.3266 27.2385C21.4095 28.555 19.669 31.4105 18.883 33.0422L16.2441 31.7813C17.0302 30.1125 18.9204 27.0345 19.9123 25.5883C22.4201 21.954 25.3584 18.5979 28.671 15.5941L29.6629 14.6855L30.6548 15.5941C33.8738 18.5423 36.6998 21.8799 39.0392 25.4956C42.4641 30.7986 49.0518 40.9782 46.413 52.7338Z" fill="white"/>
<path d="M57.099 45.7804C57.0616 55.0329 55.1339 61.8934 51.3722 66.2323C48.9392 69.0507 46.0384 70.6267 45.9261 70.6824C42.6509 72.4439 39.3009 73.0001 36.4188 73.0001C32.9939 73.0001 30.2428 72.2399 29.0824 71.8691C21.091 69.2546 14.4659 61.5041 12.6505 52.5668C11.7335 48.0982 12.3323 42.3131 13.867 37.7517C14.6156 38.0855 15.5326 38.5119 16.5245 39.0682C15.1396 43.1474 14.7092 48.024 15.5139 51.992C17.1234 59.8167 23.0749 66.8627 29.9995 69.1063C31.8523 69.7182 38.4213 71.4426 44.5224 68.1421C44.5411 68.1421 47.0864 66.7329 49.1638 64.341C56.1633 56.2567 54.0859 38.994 53.225 33.6168C52.7571 33.7095 52.2705 33.8208 51.8026 33.9135C51.0915 34.0804 50.5862 34.2102 50.399 34.2473C49.6878 34.4327 48.5275 34.7294 46.4875 35.2115C46.1319 34.3585 45.7764 33.5427 45.402 32.7639C46.6934 32.3004 48.1157 31.8368 49.6504 31.4474C51.2599 31.021 52.7758 30.7243 54.1795 30.4832L55.6018 30.2422L55.8638 31.6514C56.0884 32.7824 57.1552 38.8642 57.1177 45.7804H57.099Z" fill="white"/>
<path d="M40.2372 37.7519C38.5342 39.328 36.5878 41.4788 34.8098 44.2416C31.2352 49.8227 30.8422 51.4359 29.6632 55.1072C29.2514 53.8093 28.6338 52.0663 27.7168 50.0638C27.0243 48.5619 25.9014 46.0772 24.2545 43.8522C20.3804 38.5677 14.8969 36.3427 12.6136 35.4527C9.97481 34.4143 7.20496 33.7653 4.34154 33.5057C3.92981 35.4712 3.21863 39.7359 3.4245 44.7237C3.78008 53.2159 6.54993 59.9096 11.6592 64.5637C13.512 66.251 15.4771 67.5489 15.4771 67.5489C16.6936 68.2906 17.8352 68.8098 18.8458 69.1992C19.9687 70.4044 21.1852 71.4798 22.4765 72.4255C18.8084 71.7951 13.9799 70.3117 9.67536 66.7145C0.692081 59.1679 -2.28363 45.4097 1.77756 31.6145L2.077 30.4834L3.25606 30.539C6.86809 30.7059 10.3678 31.4661 13.6804 32.7641C16.5625 33.8951 22.5327 36.2314 26.65 42.2205C28.0911 44.3158 29.0643 46.4481 29.7193 48.4877C30.0188 47.5421 30.3743 46.5779 30.8048 45.6137C30.8048 45.6137 31.4785 44.0933 32.2833 42.7582C34.211 39.5505 38.2909 36.2129 39.2079 35.4897C39.5635 36.2314 39.9191 36.9917 40.2185 37.7704L40.2372 37.7519Z" fill="white"/>
<path d="M29.889 11.5333C29.7393 11.5333 29.5896 11.5333 29.4399 11.5333C26.2396 11.2922 23.844 8.5109 24.0873 5.34021C24.2183 3.80122 24.9295 2.41057 26.1086 1.4093C27.2876 0.389487 28.8035 -0.111148 30.3569 0.000104424C31.9103 0.129899 33.3139 0.834496 34.3245 2.00264C35.3351 3.17079 35.8217 4.6727 35.7094 6.19314C35.4661 9.2155 32.9209 11.5147 29.9077 11.5147L29.889 11.5333ZM29.889 2.9112C29.1966 2.9112 28.5415 3.15225 28.0175 3.59726C27.4373 4.09789 27.0817 4.78395 27.0069 5.54417C26.9507 6.3044 27.194 7.04608 27.6993 7.62088C28.2047 8.19569 28.8971 8.54798 29.6644 8.62215C31.2739 8.75195 32.6402 7.56526 32.7712 5.98918C32.9022 4.41311 31.7044 3.041 30.1136 2.9112C30.0387 2.9112 29.9639 2.9112 29.889 2.9112Z" fill="white"/>
</g>
<defs>
<clipPath id="clip0_1663_746">
<rect width="178" height="73" fill="white"/>
</clipPath>
</defs>
</svg>
