<svg width="21" height="21" viewBox="0 0 21 21" fill="none" xmlns="http://www.w3.org/2000/svg">
<path id="Vector" d="M5.75404 15.21C9.02749 18.4782 13.0032 21 16.254 21C17.7151 21 18.9952 20.4911 20.0258 19.3603C20.6262 18.693 21 17.9128 21 17.1438C21 16.5783 20.7847 16.0356 20.2523 15.6511L16.7751 13.1857C16.2541 12.8239 15.8009 12.643 15.3932 12.643C14.8834 12.643 14.419 12.937 13.898 13.4459L13.0939 14.2374C12.9692 14.3619 12.8106 14.4184 12.6634 14.4184C12.4935 14.4184 12.3236 14.3506 12.2103 14.294C11.5081 13.9208 10.3074 12.8917 9.18607 11.7835C8.07604 10.6753 7.0453 9.47657 6.68284 8.77544C6.6262 8.65105 6.55825 8.49273 6.55825 8.32309C6.55825 8.17608 6.60355 8.02908 6.72814 7.90469L7.53235 7.07916C8.03073 6.55897 8.33656 6.10662 8.33656 5.58642C8.33656 5.17932 8.15533 4.73828 7.77022 4.20679L5.33494 0.780287C4.94983 0.23748 4.38349 0 3.77183 0C3.02426 0 2.25404 0.339257 1.58576 0.983839C0.487054 2.03554 0 3.33602 0 4.77221C0 8.01776 2.48058 11.9532 5.75404 15.21Z" fill="#4F4F4F"/>
</svg>
