<svg width="13" height="13" viewBox="0 0 13 13" fill="none" xmlns="http://www.w3.org/2000/svg">
<g id="Vector">
<path id="Vector_2" d="M3.56202 9.41573C5.58845 11.4389 8.04958 13 10.062 13C10.9665 13 11.7589 12.6849 12.3969 11.9849C12.7686 11.5719 13 11.0889 13 10.6128C13 10.2628 12.8667 9.92677 12.5372 9.68878L10.3846 8.16259C10.062 7.93857 9.7815 7.8266 9.52912 7.8266C9.21355 7.8266 8.92606 8.00861 8.60353 8.32367L8.10573 8.81364C8.02854 8.8907 7.93039 8.92568 7.83928 8.92568C7.73409 8.92568 7.6289 8.88368 7.55875 8.84869C7.12405 8.61765 6.38079 7.98058 5.68661 7.29455C4.99945 6.60851 4.36137 5.86645 4.137 5.43242C4.10193 5.35541 4.05987 5.2574 4.05987 5.15239C4.05987 5.06139 4.08791 4.97038 4.16504 4.89338L4.66288 4.38234C4.97141 4.06031 5.16072 3.78029 5.16072 3.45826C5.16072 3.20624 5.04854 2.93322 4.81013 2.6042L3.30258 0.483035C3.06418 0.147011 2.71359 0 2.33495 0C1.87216 0 1.39536 0.210016 0.981661 0.609043C0.30151 1.2601 0 2.06515 0 2.95423C0 4.96338 1.53559 7.39957 3.56202 9.41573Z" fill="white"/>
</g>
</svg>
