<svg width="22" height="22" viewBox="0 0 22 22" fill="none" xmlns="http://www.w3.org/2000/svg">
<g id="Group">
<path id="Vector" d="M17.1645 7.36419C17.1645 7.30064 17.1629 7.29738 17.096 7.29901C16.9347 7.29901 16.775 7.28108 16.6169 7.25664C16.0417 7.17027 14.1741 6.19086 13.858 4.58893C13.8515 4.55797 13.7814 4.16034 13.7814 3.99086C13.7814 3.9159 13.7814 3.91427 13.7064 3.91427C13.6885 3.91427 13.6722 3.91427 13.6543 3.91427C12.9242 3.91427 12.1925 3.91427 11.4624 3.91427C11.3158 3.91427 11.3353 3.89634 11.3353 4.04301C11.3353 7.21101 11.3353 10.379 11.3353 13.547C11.3353 13.666 11.332 13.7833 11.3109 13.899C11.2 14.5117 10.8872 14.9925 10.3559 15.32C9.89634 15.6036 9.39605 15.6851 8.86479 15.5792C8.69694 15.5466 8.54049 15.483 8.38404 15.4211C8.37101 15.4097 8.35797 15.3983 8.34657 15.3869C8.29442 15.3429 8.23575 15.3054 8.17871 15.2663C7.50242 14.7986 7.18138 14.1483 7.27916 13.3352C7.37856 12.5106 7.85279 11.95 8.63501 11.6615C8.86805 11.5752 9.11412 11.5393 9.36345 11.554C9.52479 11.5621 9.68449 11.5833 9.83931 11.6273C9.89309 11.642 9.92242 11.624 9.92568 11.567C9.92568 11.5475 9.92568 11.5263 9.92568 11.5067C9.92568 10.938 9.90449 9.69619 9.90123 9.69293C9.90123 9.52997 9.90123 9.36538 9.90612 9.20242C9.90612 9.15516 9.88331 9.14701 9.8442 9.14212C9.54923 9.1079 9.25427 9.09975 8.95768 9.12256C8.54864 9.1519 8.15101 9.23664 7.76479 9.37516C7.14879 9.59679 6.60938 9.93901 6.1433 10.3953C5.74241 10.788 5.4279 11.2411 5.19812 11.7528C4.97649 12.2417 4.85101 12.755 4.81516 13.2895C4.80049 13.5209 4.80212 13.754 4.82494 13.987C4.85427 14.308 4.91619 14.6226 5.01397 14.9306C5.29427 15.8138 5.80597 16.5374 6.53116 17.1126C6.60449 17.1713 6.6762 17.2349 6.7642 17.2723C6.80168 17.3049 6.83753 17.3375 6.87501 17.3701C6.99234 17.4581 7.11782 17.5347 7.24982 17.5983C8.06138 17.9992 8.91694 18.1621 9.81812 18.0529C10.9882 17.9095 11.9627 17.3913 12.7286 16.4983C13.4506 15.6574 13.8009 14.6715 13.8075 13.5682C13.8172 11.9907 13.8091 10.4132 13.8107 8.83412C13.8107 8.79664 13.7895 8.74286 13.8303 8.7233C13.8629 8.70864 13.8955 8.75101 13.9264 8.77219C14.5131 9.15842 15.147 9.43708 15.8331 9.59353C16.2323 9.68479 16.6349 9.74019 17.0455 9.74019C17.1743 9.74019 17.1922 9.73368 17.1922 9.60493C17.1922 9.04434 17.1629 7.51249 17.1645 7.36419Z" fill="#E0E0E0"/>
</g>
</svg>
